<?xml version="1.0" encoding="UTF-8" standalone="no"?>
<!-- Created with Inkscape (http://www.inkscape.org/) -->

<svg
   width="512"
   height="512"
   viewBox="0 0 135.46666 135.46667"
   version="1.1"
   id="svg5"
   inkscape:version="1.2.2 (732a01da63, 2022-12-09)"
   sodipodi:docname="Conduit_Icon.svg"
   xml:space="preserve"
   xmlns:inkscape="http://www.inkscape.org/namespaces/inkscape"
   xmlns:sodipodi="http://sodipodi.sourceforge.net/DTD/sodipodi-0.dtd"
   xmlns="http://www.w3.org/2000/svg"
   xmlns:svg="http://www.w3.org/2000/svg"
   xmlns:rdf="http://www.w3.org/1999/02/22-rdf-syntax-ns#"
   xmlns:cc="http://creativecommons.org/ns#"
   xmlns:dc="http://purl.org/dc/elements/1.1/"><title
     id="title4610">Conduit</title><sodipodi:namedview
     id="namedview7"
     pagecolor="#ffffff"
     bordercolor="#666666"
     borderopacity="1.0"
     inkscape:showpageshadow="2"
     inkscape:pageopacity="0.0"
     inkscape:pagecheckerboard="true"
     inkscape:deskcolor="#d1d1d1"
     inkscape:document-units="px"
     showgrid="false"
     inkscape:zoom="2"
     inkscape:cx="272"
     inkscape:cy="232.5"
     inkscape:window-width="3840"
     inkscape:window-height="2107"
     inkscape:window-x="-8"
     inkscape:window-y="-8"
     inkscape:window-maximized="1"
     inkscape:current-layer="layer2" /><defs
     id="defs2"><pattern
       id="EMFhbasepattern"
       patternUnits="userSpaceOnUse"
       width="6"
       height="6"
       x="0"
       y="0" /><filter
       inkscape:label="Black Light"
       inkscape:menu="Color"
       inkscape:menu-tooltip="Light areas turn to black"
       style="color-interpolation-filters:sRGB;"
       id="filter382"
       x="0"
       y="0"
       width="1"
       height="1"><feColorMatrix
         type="luminanceToAlpha"
         result="result2"
         id="feColorMatrix374" /><feComposite
         in2="SourceGraphic"
         operator="arithmetic"
         in="result2"
         k3="2"
         result="result4"
         id="feComposite376" /><feBlend
         in="result4"
         mode="multiply"
         result="result3"
         in2="result2"
         id="feBlend378" /><feComposite
         in2="SourceGraphic"
         operator="in"
         in="result3"
         id="feComposite380" /></filter></defs><g
     inkscape:groupmode="layer"
     id="layer2"
     inkscape:label="Invertable"
     style="display:inline"><path
       id="path1046"
       style="fill:#000000;fill-opacity:1;stroke:none;stroke-width:0.168354px;stroke-linecap:butt;stroke-linejoin:miter;stroke-opacity:1"
       d="m 57.153687,0.34477403 c -1.524049,0.017062 -3.03597,0.1469139 -4.530781,0.3834015 -1.121105,0.1773658 -2.232584,0.41475277 -3.332239,0.70958827 -0.366547,0.098279 -0.731765,0.2027398 -1.095615,0.3136922 -2.183104,0.6657131 -4.316182,1.5580603 -6.382022,2.6561893 -0.344309,0.1830212 -0.686735,0.3718531 -1.027226,0.5662239 -0.340497,0.194371 -0.6792,0.3942324 -1.015721,0.5997634 -0.336521,0.205531 -0.670833,0.4164718 -1.003223,0.6329738 -0.997173,0.6495056 -1.975582,1.3480865 -2.932725,2.0929246 -0.319048,0.2482795 -0.635671,0.5017329 -0.949953,0.760226 -1.885691,1.550961 -3.684036,3.28405 -5.378144,5.178879 -0.84705,0.947414 -1.668145,1.935284 -2.460869,2.961003 -0.792722,1.025718 -1.557092,2.089301 -2.291205,3.188215 -0.244702,0.366305 -0.486178,0.736359 -0.724053,1.110418 v 3.28e-4 c -0.475692,0.748044 -0.937558,1.51131 -1.384979,2.28923 v 3.28e-4 c -0.223685,0.388919 -0.443884,0.781393 -0.660265,1.177496 v 3.29e-4 c -0.432805,0.792293 -0.851154,1.598883 -1.253787,2.418782 -0.402669,0.819988 -0.789833,1.653258 -1.161051,2.499344 -0.371225,0.846085 -0.726541,1.704958 -1.065041,2.575628 -0.16925,0.435335 -0.33437,0.873745 -0.495201,1.314942 -0.321663,0.882395 -0.626089,1.776141 -0.913124,2.680851 -0.717589,2.261774 -1.32518,4.590854 -1.812446,6.975538 v 3.28e-4 c -0.29233,1.430709 -0.541391,2.881462 -0.745102,4.3496 -0.271631,1.957663 -0.4627,3.94653 -0.567867,5.960149 -0.02629,0.503406 -0.04698,1.008434 -0.06247,1.514863 -0.06196,2.025719 -0.03698,4.07479 0.08023,6.141329 0.0293,0.516634 0.06432,1.034292 0.105219,1.553005 -0.333346,0.229707 -0.648079,0.477103 -0.940091,0.746088 -0.584016,0.537968 -1.076672,1.162504 -1.443506,1.906813 -0.122278,0.248103 -0.230856,0.509653 -0.32389,0.785546 -0.04651,0.137946 -0.08918,0.279483 -0.127909,0.424832 -0.03872,0.14535 -0.07329,0.294465 -0.103902,0.447521 -0.06122,0.306112 -0.105995,0.62796 -0.132846,0.966724 -0.02684,0.338764 -0.03573,0.694481 -0.02564,1.068329 0.01008,0.373846 0.03921,0.765805 0.08878,1.177167 0.07436,0.617042 0.194587,1.277772 0.364988,1.986059 0.0568,0.236095 0.118982,0.477214 0.187098,0.724056 0.06811,0.246841 0.142207,0.499376 0.221955,0.757267 0.07974,0.257892 0.165438,0.521232 0.257129,0.790477 0.0917,0.269246 0.189337,0.54443 0.293309,0.825333 0.103965,0.280903 0.21423,0.56765 0.330788,0.860515 0.233121,0.585731 0.491587,1.195785 0.776999,1.831187 0.42811,0.9531 0.916528,1.963289 1.469487,3.034986 -0.409492,1.269634 -0.790477,2.508743 -1.144617,3.717942 -0.531209,1.813796 -1.001735,3.560481 -1.41589,5.242339 -0.138052,0.560621 -0.269856,1.113885 -0.395563,1.660201 -0.377129,1.638959 -0.699626,3.213943 -0.971657,4.727417 -0.181359,1.008976 -0.340135,1.990545 -0.478104,2.945545 -0.06898,0.477504 -0.132733,0.948334 -0.191368,1.412604 -0.05865,0.46438 -0.11216,0.92214 -0.160793,1.37348 -0.04862,0.45122 -0.09259,0.89597 -0.13153,1.33433 -0.03893,0.43837 -0.073,0.8702 -0.1025905,1.29588 -0.029588,0.42568 -0.054403,0.84521 -0.074969,1.25838 -0.020566,0.41318 -0.036784,0.82005 -0.048665,1.2209 -0.011879,0.40085 -0.01949,0.79571 -0.023021,1.18441 -0.0035,0.38869 -0.00318,0.77116 0.00134,1.14789 0.00452,0.37663 0.01314,0.74789 0.025319,1.11272 0.012185,0.36495 0.028137,0.72388 0.047678,1.07721 0.039088,0.70667 0.092625,1.39019 0.1591515,2.0515 0.03326,0.33064 0.06954,0.65568 0.109164,0.97527 0.07925,0.63916 0.170878,1.2566 0.273577,1.85255 0.256748,1.48989 0.582623,2.84675 0.956864,4.08227 0.07484,0.24711 0.151617,0.48956 0.230169,0.72703 0.314199,0.94987 0.656878,1.82338 1.017032,2.62626 0.720312,1.60577 1.511368,2.92914 2.287915,4.01585 0.194135,0.27168 0.387055,0.52858 0.578061,0.7714 0.191005,0.24283 0.380017,0.47149 0.565239,0.6869 0.185214,0.21542 0.366764,0.41758 0.543535,0.607 1.237389,1.32599 2.235306,2.03289 2.537816,2.36717 0.141468,-0.42254 0.288994,-0.84134 0.442916,-1.25478 0.153921,-0.41344 0.31418,-0.82142 0.481388,-1.22221 0.334415,-0.80158 0.696151,-1.57435 1.088717,-2.30403 0.19628,-0.36483 0.400514,-0.7189 0.612586,-1.06044 0.424102,-0.683 0.880552,-1.31593 1.372813,-1.88445 v -3.2e-4 c 0.123081,-0.14215 0.248565,-0.28011 0.376168,-0.41398 0.127605,-0.13389 0.257416,-0.26351 0.389645,-0.38867 0.269111,0.44643 0.561912,0.97687 0.872026,1.52506 0.15506,0.27409 0.31453,0.55262 0.477448,0.82731 0.40729,0.6867 0.836557,1.34929 1.275478,1.85847 0.08779,0.10183 0.175919,0.19755 0.26437,0.28607 0.265357,0.26557 0.533246,0.46663 0.801002,0.5751 0.08925,0.0361 0.17854,0.062 0.26766,0.0766 0.132472,-0.52665 0.341248,-1.11882 0.639546,-1.75062 0.09943,-0.2106 0.20865,-0.42575 0.32849,-0.64415 0.119842,-0.21841 0.250378,-0.44027 0.391625,-0.66455 0.141239,-0.22427 0.293423,-0.45113 0.457055,-0.67933 0.163631,-0.22821 0.338435,-0.45769 0.525451,-0.68789 0.37403,-0.46039 0.796044,-0.923 1.269567,-1.37971 0.236755,-0.22837 0.486255,-0.45514 0.749372,-0.67968 0.263123,-0.22453 0.539792,-0.44676 0.830264,-0.66552 0.580943,-0.43754 1.217422,-0.86146 1.91372,-1.26431 0.348146,-0.20142 0.711226,-0.39775 1.089704,-0.58759 0.378471,-0.18984 0.772635,-0.37314 1.182425,-0.54946 0.409797,-0.17632 0.835355,-0.34552 1.277458,-0.50637 0.734679,0.73845 1.478483,1.47146 2.234313,2.19748 0.377918,0.36301 0.758662,0.72421 1.142975,1.08345 0.768619,0.71851 1.551085,1.42924 2.349726,2.13008 0.399324,0.35043 0.802776,0.69831 1.210709,1.04367 0.407939,0.34537 0.820052,0.68803 1.237339,1.02789 h 3.3e-4 c 0.417222,0.3398 0.839294,0.67691 1.266609,1.01079 0.427378,0.33392 0.85996,0.66481 1.298168,0.99237 0.438207,0.32755 0.881939,0.65189 1.331715,0.97263 0.449775,0.32075 0.905799,0.6381 1.367881,0.95161 0.462081,0.31351 0.93024,0.62308 1.405366,0.92891 0.475126,0.30583 0.957226,0.60785 1.446141,0.90556 0.488914,0.29772 0.98479,0.5914 1.488225,0.88057 0.503441,0.28917 1.014252,0.57375 1.532951,0.85394 0.5187,0.28019 1.045271,0.55588 1.579967,0.82665 h 8.370057 8.196104 c 6.416371,-3.24931 11.654395,-7.19237 16.351778,-11.45305 0.391447,-0.35505 0.779043,-0.71236 1.163356,-1.07162 0.384256,-0.35919 0.765114,-0.72049 1.142969,-1.08345 0.75583,-0.72602 1.499641,-1.45903 2.234321,-2.19748 0.442102,0.16085 0.86766,0.33005 1.277459,0.50637 h 3.26e-4 c 1.229261,0.52893 2.315372,1.12307 3.271732,1.75622 h 3.2e-4 c 3.82561,2.53274 5.57494,5.69004 6.10483,7.79659 0.4456,-0.0729 0.89411,-0.4286 1.33303,-0.93778 0.43892,-0.50919 0.86852,-1.17178 1.27581,-1.85848 0.16291,-0.27469 0.32205,-0.55322 0.47711,-0.82731 0.31012,-0.54818 0.60292,-1.07862 0.87203,-1.52505 0.26445,0.25033 0.51965,0.51835 0.76581,0.80264 0.002,0.003 0.004,0.005 0.006,0.008 1.72003,1.98948 3.0034,4.76444 3.99251,7.71866 0.17287,-0.191 0.57276,-0.50376 1.11469,-0.98415 0.27096,-0.24019 0.57752,-0.5222 0.90885,-0.85196 0.16567,-0.16488 0.33751,-0.34162 0.51427,-0.53104 0.17678,-0.18943 0.35865,-0.39159 0.54387,-0.607 0.18522,-0.21541 0.3739,-0.44408 0.56491,-0.6869 0.19101,-0.24283 0.38425,-0.49973 0.57839,-0.77141 0.77654,-1.08671 1.5676,-2.41008 2.28791,-4.01585 0.18008,-0.40145 0.35554,-0.82058 0.52546,-1.25805 0.16991,-0.43748 0.33414,-0.89328 0.49124,-1.36821 0.0786,-0.23748 0.15533,-0.47991 0.23018,-0.72702 0.37424,-1.23553 0.70011,-2.5924 0.95685,-4.08227 0.1027,-0.59595 0.19434,-1.21341 0.27358,-1.85256 0.0396,-0.31958 0.0763,-0.64462 0.10949,-0.97527 0.0665,-0.66131 0.12007,-1.34484 0.15916,-2.0515 0.0196,-0.35333 0.0355,-0.71226 0.0477,-1.07721 0.0122,-0.36493 0.0205,-0.73598 0.025,-1.11272 0.004,-0.37672 0.005,-0.75919 0.002,-1.1479 -0.004,-0.3887 -0.0111,-0.78355 -0.0231,-1.1844 -0.0119,-0.40084 -0.028,-0.80772 -0.0487,-1.22089 -0.0205,-0.41318 -0.0457,-0.83271 -0.0753,-1.2584 -0.0296,-0.42568 -0.0637,-0.85749 -0.1026,-1.29587 -0.0389,-0.43836 -0.0825,-0.8831 -0.1312,-1.33434 -0.0972,-0.90246 -0.21419,-1.83106 -0.35216,-2.786074 -0.069,-0.4775 -0.14327,-0.961476 -0.22294,-1.452384 -0.15933,-0.981815 -0.34047,-1.990594 -0.54451,-3.027096 -0.20405,-1.036509 -0.43089,-2.100844 -0.6823,-3.19348 -0.12572,-0.546316 -0.25752,-1.09958 -0.39557,-1.660201 -0.27611,-1.121239 -0.57744,-2.271424 -0.90491,-3.450941 -0.32746,-1.179518 -0.68125,-2.388609 -1.06274,-3.627845 -0.19073,-0.619617 -0.38844,-1.246679 -0.59318,-1.881495 0.18432,-0.357232 0.36157,-0.707808 0.5317,-1.051559 0.17012,-0.343751 0.33335,-0.68054 0.48961,-1.011114 0.15625,-0.330574 0.30547,-0.654614 0.44818,-0.972314 0.1427,-0.3177 0.27891,-0.62904 0.40839,-0.934171 0.51788,-1.220523 0.93118,-2.341774 1.25016,-3.37334 0.0797,-0.257892 0.15351,-0.510426 0.22163,-0.757268 0.13622,-0.493684 0.24935,-0.965567 0.34098,-1.416875 0.0458,-0.225654 0.0862,-0.446066 0.12133,-0.661581 0.0703,-0.43103 0.11978,-0.842081 0.14928,-1.234382 0.0442,-0.58845 0.0439,-1.134626 0.004,-1.642773 -0.0269,-0.338764 -0.0713,-0.660611 -0.1325,-0.966723 -0.0307,-0.153057 -0.0655,-0.302172 -0.10425,-0.447522 -0.0774,-0.290699 -0.17086,-0.566268 -0.27883,-0.827962 -0.054,-0.130847 -0.11149,-0.258364 -0.17264,-0.382415 -0.36683,-0.744309 -0.85949,-1.368846 -1.4435,-1.906814 -0.0973,-0.08966 -0.1973,-0.177075 -0.29955,-0.262068 -0.2045,-0.169986 -0.41863,-0.330881 -0.64087,-0.484019 0.0409,-0.518713 0.0763,-1.036371 0.10555,-1.553006 0.0586,-1.033269 0.094,-2.062133 0.1072,-3.085954 0.006,-0.511907 0.008,-1.0227 0.004,-1.531961 -0.004,-0.509265 -0.0144,-1.016984 -0.0299,-1.523413 -0.0155,-0.506429 -0.0366,-1.011458 -0.0628,-1.514863 -0.10515,-2.013509 -0.29625,-4.002262 -0.56786,-5.95982 v -3.29e-4 c -0.0679,-0.489415 -0.14075,-0.976806 -0.21866,-1.462252 -0.15584,-0.970885 -0.33154,-1.933807 -0.52644,-2.887677 -0.48727,-2.384684 -1.09453,-4.713763 -1.81212,-6.975538 -0.14351,-0.452355 -0.29165,-0.901939 -0.4439,-1.348809 -0.45676,-1.340609 -0.95242,-2.655993 -1.48494,-3.94384 -0.17751,-0.429283 -0.35891,-0.855729 -0.54452,-1.278772 -0.18561,-0.423042 -0.3753,-0.842759 -0.56886,-1.259372 -0.19354,-0.416611 -0.39119,-0.829978 -0.59252,-1.239971 -0.40264,-0.819899 -0.82065,-1.626489 -1.25345,-2.418783 v -3.28e-4 c -0.2164,-0.396104 -0.43659,-0.788577 -0.66028,-1.177497 v -3.28e-4 c -0.22373,-0.389001 -0.45108,-0.77417 -0.68196,-1.155794 -0.23088,-0.381625 -0.46547,-0.759705 -0.70334,-1.133764 -0.23787,-0.374059 -0.47903,-0.744112 -0.72373,-1.110417 -0.48936,-0.732534 -0.99257,-1.449421 -1.50829,-2.14981 v -7.07e-4 c -0.25817,-0.350228 -0.5193,-0.696171 -0.78353,-1.038077 -0.26424,-0.341907 -0.53155,-0.679693 -0.80199,-1.013088 -0.27044,-0.333395 -0.54392,-0.662416 -0.8204,-0.987111 -0.27647,-0.324694 -0.55581,-0.645 -0.83816,-0.960805 -0.5647,-0.631609 -1.141,-1.245148 -1.72826,-1.840063 -0.29363,-0.297459 -0.5901,-0.590271 -0.88912,-0.878272 C 102.44677,10.656311 101.52563,9.835251 100.58279,9.05977 99.639947,8.2842865 98.675457,7.5543302 97.691161,6.8724751 97.363058,6.6451915 97.032824,6.4231212 96.700433,6.2066192 96.368042,5.990117 96.033405,5.7791763 95.696884,5.5736453 94.687323,4.9570474 93.65941,4.390086 92.615533,3.8756309 91.223777,3.1897454 89.803502,2.5970304 88.359646,2.1033031 h -3.31e-4 C 87.998323,1.979867 87.636096,1.8624208 87.272246,1.7514683 86.908396,1.6405168 86.543172,1.5360555 86.176624,1.4377761 85.443529,1.2412138 84.704987,1.0702117 83.962036,0.92547803 c -0.371479,-0.0723633 -0.74395,-0.138168 -1.11765,-0.1972902 -0.747399,-0.1182504 -1.499361,-0.209755 -2.254701,-0.2739051 -0.377568,-0.032064 -0.756097,-0.057371 -1.135409,-0.075631 h -3.31e-4 c -0.379311,-0.01826 -0.759438,-0.029606 -1.14034,-0.033869 h -3.25e-4 c -0.435427,-0.00493 -0.871733,-5.241e-4 -1.309024,0.013151 -0.437304,0.013671 -0.875683,0.036547 -1.314617,0.069051 -0.438927,0.032504 -0.878566,0.074645 -1.318886,0.1262664 -2.201494,0.2580718 -4.418787,0.75686177 -6.636855,1.51387667 -2.218165,-0.7570721 -4.435591,-1.25579337 -6.637187,-1.51387667 -0.440314,-0.051619 -0.879953,-0.093761 -1.318886,-0.1262664 -0.438933,-0.032504 -0.876976,-0.05538 -1.31428,-0.069051 h -3.31e-4 C 58.02591,0.34426223 57.58963,0.33991073 57.15419,0.34478193 Z M 116.28562,132.75769 c -0.14342,0.15847 -0.13099,0.23344 0.0868,0.25055 -0.0277,-0.0843 -0.0587,-0.1665 -0.0868,-0.25055 z m -97.104781,0 c -0.02813,0.084 -0.05911,0.16622 -0.08681,0.25055 0.05445,-0.004 0.09606,-0.0121 0.125606,-0.024 0.05911,-0.0238 0.07,-0.0639 0.0388,-0.12298 -0.0156,-0.0296 -0.04174,-0.0639 -0.07759,-0.10358 z M 58.644547,4.046932 c 0.38502,0.00682 0.77128,0.023829 1.157769,0.051623 0.386489,0.027794 0.773169,0.066282 1.159734,0.1164018 0.386566,0.050121 0.772845,0.1119826 1.1581,0.1857815 0.46459,0.088998 0.927498,0.1979519 1.387939,0.3235571 0.208439,0.056675 0.416204,0.1175801 0.623441,0.1821647 0.180652,0.056414 0.360675,0.1160047 0.540245,0.178548 0.197342,0.068657 0.394017,0.1413632 0.589896,0.2176773 0.171673,0.066898 0.342584,0.1369211 0.51296,0.2097859 0.209821,0.089778 0.418692,0.1839527 0.626394,0.283112 0.148054,0.0706 0.295428,0.143573 0.442261,0.2189925 0.233058,0.1199021 0.464652,0.2453125 0.694465,0.3778114 0.06318,0.036352 0.126815,0.070869 0.189726,0.1081808 0.0017,5.885e-4 3.56e-4,0.00432 0.0026,0.00426 v 6.363e-4 c 6.99e-4,-6.147e-4 0.0022,-1.508e-4 0.0033,-3.29e-4 9.69e-4,1.871e-4 0.0024,-2.411e-4 0.003,3.29e-4 V 6.504828 c 0.0023,1.71e-5 9.69e-4,-0.00369 0.0026,-0.00426 0.06291,-0.037313 0.126541,-0.071826 0.189725,-0.1081808 0.229807,-0.1324989 0.461407,-0.2579093 0.694466,-0.3778114 0.146825,-0.075419 0.294206,-0.148393 0.442254,-0.2189925 0.207702,-0.099159 0.41658,-0.1933344 0.6264,-0.283112 0.171286,-0.073256 0.343323,-0.1435482 0.515914,-0.2107721 0.193944,-0.075519 0.388601,-0.1476913 0.583984,-0.2157048 0.181396,-0.063216 0.363334,-0.1232261 0.545838,-0.1801922 0.204647,-0.063743 0.40972,-0.1241583 0.615544,-0.1801915 0.462267,-0.1262606 0.926747,-0.235518 1.3932,-0.3248724 0.385249,-0.073799 0.771529,-0.135662 1.158094,-0.1857815 0.386566,-0.050121 0.773583,-0.088609 1.160072,-0.1164018 0.386489,-0.027794 0.772419,-0.044802 1.157438,-0.051623 0.367522,-0.00651 0.734203,-0.00375 1.099567,0.00723 h 3.24e-4 c 0.365256,0.01102 0.729048,0.030262 1.09102,0.057541 h 3.26e-4 c 1.086133,0.081865 2.155094,0.2343344 3.191508,0.4399576 h 3.3e-4 c 0.690902,0.1370822 1.367265,0.2979365 2.024857,0.4774434 h 3.3e-4 c 0.986426,0.269282 1.93041,0.5806183 2.81665,0.9170727 h 3.31e-4 c 0.886221,0.3364575 1.714653,0.6979923 2.470407,1.0676711 h 3.24e-4 c 0.755735,0.3696763 1.43876,0.7477174 2.03374,1.1166644 -1.237072,-0.114956 -2.406243,-0.1804251 -3.51144,-0.1995923 h -3.32e-4 C 82.144964,7.8287363 78.069182,9.047715 75.205783,11.147419 c -0.178959,0.131231 -0.353178,0.265784 -0.522817,0.403788 -1.357103,1.10403 -2.420515,2.421332 -3.266146,3.896818 -0.105708,0.184436 -0.20807,0.371362 -0.307116,0.560634 -0.09667,0.184725 -0.189879,0.371835 -0.280482,0.560963 -0.0048,0.01007 -0.0097,0.02017 -0.01447,0.03025 -0.08992,0.188592 -0.177215,0.37939 -0.261411,0.572142 -0.08661,0.198298 -0.170369,0.398591 -0.251218,0.601079 5.235129,-4.942084 10.179061,-7.034643 14.681056,-7.43095 3.24e-4,-3e-5 6.36e-4,2.8e-5 9.69e-4,0 1.227348,-0.107955 2.421851,-0.08987 3.580492,0.03091 h 3.3e-4 c 0.772597,0.08055 1.529381,0.20696 2.269171,0.371892 h 3.3e-4 c 0.369838,0.08246 0.735303,0.1746 1.096608,0.27555 h 3.24e-4 c 0.722705,0.201937 1.428102,0.439133 2.115288,0.704656 h 3.31e-4 c 3.092633,1.195015 5.816518,2.963785 8.089218,4.674471 h 3.2e-4 c 0.50499,0.38011 0.9876,0.75777 1.44713,1.125214 h 3.4e-4 c 0.45952,0.367438 0.89576,0.725116 1.30803,1.066027 -2.04986,-0.435172 -3.97741,-0.76912 -5.791783,-1.008812 h -3.35e-4 C 98.192821,17.46222 97.313885,17.366046 96.46217,17.292364 h -3.31e-4 c -0.425793,-0.03683 -0.844689,-0.06808 -1.25707,-0.09371 h -3.25e-4 c -3.712358,-0.230775 -6.886813,-0.01247 -9.628444,0.572471 -0.304621,0.06499 -0.603919,0.134538 -0.897998,0.208471 -0.294079,0.07393 -0.58294,0.15213 -0.866763,0.234776 -0.283822,0.08265 -0.562655,0.169618 -0.836513,0.260752 -1.095412,0.364536 -2.112227,0.796032 -3.059647,1.287321 -1.184284,0.614112 -2.260001,1.321655 -3.245428,2.108379 -0.197088,0.157345 -0.390702,0.317818 -0.580695,0.481389 -0.189993,0.163572 -0.376455,0.330232 -0.559645,0.499803 -0.366389,0.339141 -0.719536,0.690104 -1.060441,1.051888 6.145446,-3.56667 14.514981,-5.142937 21.576688,-4.341708 h 3.32e-4 c 0.371555,0.04216 0.739381,0.09094 1.10318,0.146323 h 3.31e-4 c 0.363799,0.05538 0.723506,0.117722 1.078513,0.18644 h 3.35e-4 c 0.355008,0.06872 0.705382,0.14406 1.050568,0.226226 h 3.35e-4 c 1.381058,0.328755 2.679508,0.765473 3.862278,1.313955 h 3.3e-4 c 0.88705,0.411365 1.70892,0.885931 2.45199,1.424439 h 3.4e-4 c 0.74306,0.538523 1.40719,1.141427 1.97849,1.810141 15.518,18.164026 9.52815,46.191031 7.86467,57.200792 -0.0575,0.380685 -0.1104,0.742914 -0.15652,1.081811 -0.0476,0.349709 -0.0889,0.67641 -0.122,0.979219 -0.0662,0.605616 -0.1013,1.115115 -0.0957,1.518479 l -0.44652,9.999346 -0.95029,-1.147245 -1.51979,-6.114034 c 0.0417,-0.215134 0.0692,-0.444285 0.0861,-0.684927 0.0338,-0.481292 0.0248,-1.008436 3.2e-4,-1.560573 -0.0122,-0.276066 -0.0281,-0.558424 -0.0447,-0.844401 -5.9e-4,-0.0102 -8.8e-4,-0.0207 -0.002,-0.03091 -0.0659,-1.134766 -0.13775,-2.325118 -0.003,-3.409839 0.31734,-1.239647 0.60638,-2.560185 0.86248,-3.945812 0.25612,-1.385628 0.4793,-2.836219 0.66487,-4.336118 0.18558,-1.4999 0.33356,-3.049261 0.4393,-4.631727 0.0529,-0.791233 0.0954,-1.590821 0.1266,-2.396751 0.0935,-2.41779 0.0866,-4.892715 -0.0361,-7.371435 -0.1023,-2.065601 -0.28524,-4.133758 -0.55768,-6.173552 -0.10898,-0.815917 -0.23201,-1.627412 -0.37025,-2.432264 -0.13824,-0.804853 -0.29169,-1.602982 -0.46035,-2.392806 -0.33731,-1.579648 -0.73651,-3.125449 -1.20248,-4.621203 -0.1165,-0.373939 -0.23713,-0.744605 -0.36203,-1.112062 -0.1249,-0.367457 -0.2539,-0.731524 -0.38734,-1.092003 -0.13346,-0.36048 -0.27151,-0.717295 -0.41366,-1.070302 -0.14215,-0.353007 -0.28864,-0.702245 -0.43963,-1.047284 -0.15098,-0.345039 -0.30629,-0.686049 -0.46626,-1.022623 -0.15998,-0.336575 -0.32445,-0.668701 -0.49356,-0.996317 -0.1691,-0.327616 -0.3428,-0.650535 -0.52117,-0.968697 -0.17838,-0.318162 -0.36133,-0.631549 -0.54913,-0.939761 -0.1878,-0.308212 -0.38037,-0.611415 -0.57773,-0.909181 -0.19737,-0.297767 -0.39959,-0.590131 -0.60667,-0.876957 -0.20708,-0.286825 -0.419,-0.568027 -0.63594,-0.843417 -0.43388,-0.55078 -0.88778,-1.078235 -1.36197,-1.580298 -0.47412,-0.502005 -0.9687,-0.978718 -1.48427,-1.428055 h -3.3e-4 c -0.51539,-0.449322 -1.05183,-0.871603 -1.61003,-1.2643 h -3.3e-4 c -0.83733,-0.589055 -1.72331,-1.112383 -2.659794,-1.56287 h -3.26e-4 c -0.31211,-0.150129 -0.629839,-0.2924 -0.95325,-0.426148 h -3.26e-4 C 97.15597,25.814186 96.134331,25.487757 95.05951,25.242849 h -3.24e-4 c -0.358213,-0.08161 -0.72224,-0.154095 -1.092332,-0.217348 h -3.31e-4 c -2.221225,-0.3796 -4.657743,-0.424115 -7.325403,-0.0799 0.721661,0.156137 1.423832,0.323692 2.107066,0.502434 h 3.31e-4 c 2.732805,0.71495 5.16189,1.608732 7.317176,2.663423 h 3.31e-4 c 1.077583,0.527328 2.086664,1.094958 3.031034,1.700645 h 3.35e-4 c 0.472146,0.302821 0.927957,0.615214 1.368207,0.936801 h 3.2e-4 c 0.2201,0.16077 0.43615,0.324253 0.64844,0.489609 h 3.2e-4 c 0.42465,0.330772 0.83367,0.67062 1.22781,1.019336 h 3.2e-4 c 8.8693,7.847355 10.13253,20.16928 9.08952,33.847175 -0.50987,-1.298343 -0.92338,-2.621584 -1.28339,-3.95732 -0.17999,-0.66787 -0.34649,-1.338739 -0.50506,-2.011379 -0.15856,-0.672638 -0.30925,-1.346883 -0.45706,-2.021242 -0.51729,-2.360252 -1.00132,-4.721747 -1.68124,-7.018942 -0.29138,-0.984511 -0.6186,-1.957233 -0.99993,-2.912995 -0.12712,-0.318588 -0.2604,-0.635325 -0.40017,-0.949954 -0.55917,-1.258523 -1.22489,-2.483741 -2.04004,-3.663688 -0.20379,-0.294986 -0.41675,-0.587177 -0.63988,-0.876299 -0.22314,-0.289122 -0.45625,-0.575338 -0.70006,-0.858214 -0.2438,-0.282876 -0.49835,-0.562566 -0.76416,-0.838814 h -3.3e-4 c -1.06322,-1.104941 -2.30771,-2.155249 -3.77647,-3.138898 h -3.26e-4 c -0.734428,-0.491846 -1.524847,-0.967165 -2.376695,-1.424109 0.08411,-0.04147 0.153571,-0.09294 0.225244,-0.142706 0.0716,-0.04972 0.145846,-0.09775 0.239376,-0.132843 0.140407,-0.05262 0.324839,-0.07597 0.611276,-0.03124 h 3.24e-4 c 0.09547,0.01492 0.202306,0.03727 0.322573,0.06873 l 2.827488,1.517823 c -0.147704,-0.216518 -0.30234,-0.43094 -0.465265,-0.643169 -0.325851,-0.424457 -0.684453,-0.839848 -1.086085,-1.242931 h -3.26e-4 c -0.401579,-0.403026 -0.845927,-0.793902 -1.343222,-1.169933 h -3.31e-4 C 96.889955,34.468914 96.628322,34.284344 96.35204,34.104159 h -3.25e-4 c -0.55266,-0.360423 -1.163076,-0.704552 -1.841379,-1.029532 h -3.31e-4 c -0.339206,-0.16251 -0.695273,-0.320248 -1.069642,-0.47284 -0.748735,-0.305184 -1.570334,-0.590018 -2.474682,-0.851309 -0.90426,-0.261265 -1.891399,-0.499151 -2.971195,-0.710904 h -3.32e-4 C 87.454291,30.933709 86.891178,30.834428 86.3037,30.741994 h -3.24e-4 c -1.175198,-0.184896 -2.448047,-0.342293 -3.828757,-0.469223 l 5.42089,-0.194003 c -0.21374,-0.09578 -0.434122,-0.186127 -0.660595,-0.270945 h -3.31e-4 c -0.453052,-0.169664 -0.930501,-0.318193 -1.42805,-0.448836 h -3.31e-4 C 85.308633,29.228351 84.79092,29.115441 84.257471,29.017345 h -3.31e-4 c -0.266782,-0.04906 -0.537382,-0.09433 -0.81152,-0.136459 -0.548281,-0.08426 -1.110313,-0.155584 -1.681578,-0.21702 -0.57115,-0.06142 -1.151628,-0.113077 -1.737139,-0.158161 h -3.32e-4 c -0.585511,-0.04508 -1.176132,-0.08348 -1.767395,-0.118703 h -3.25e-4 c -1.18275,-0.07046 -2.368242,-0.127711 -3.522296,-0.197619 l -6.989346,-5.115746 v -0.01118 h -0.0042 -0.0194 -0.0042 v 0.01118 l -6.989372,5.115746 c -1.731089,0.104861 -3.53315,0.181051 -5.290022,0.316322 -1.171246,0.09018 -2.322479,0.206653 -3.419043,0.375181 -0.274144,0.04213 -0.544744,0.08741 -0.811525,0.136459 -0.266783,0.04905 -0.529829,0.102031 -0.788174,0.158819 -1.033378,0.227153 -1.994861,0.519306 -2.850189,0.902604 l 5.420884,0.194003 c -0.690355,0.06347 -1.353915,0.134437 -1.991648,0.212746 -0.637726,0.07831 -1.249504,0.164029 -1.837103,0.256477 -0.587599,0.09245 -1.150821,0.191696 -1.690779,0.29758 -2.159854,0.423537 -3.948738,0.951846 -5.446209,1.562213 -0.374367,0.152592 -0.730435,0.31033 -1.069641,0.47284 -1.017617,0.487528 -1.882509,1.018151 -2.628572,1.58227 -0.248685,0.18804 -0.484435,0.379631 -0.707942,0.574773 -0.223507,0.195143 -0.434791,0.393619 -0.635607,0.595161 -0.401634,0.403083 -0.760565,0.818473 -1.086415,1.242931 -0.162925,0.212228 -0.317552,0.42665 -0.465276,0.643167 l 2.827505,-1.517822 c 0.120382,-0.03148 0.227358,-0.0538 0.322897,-0.06873 0.286623,-0.04476 0.471163,-0.02146 0.611601,0.03123 0.09272,0.03479 0.166062,0.08227 0.237079,0.131527 6.36e-4,4.46e-4 0.0013,8.81e-4 0.0019,0.0013 h 3.31e-4 c 0.07158,0.04973 0.140884,0.101277 0.224907,0.142707 -2.129623,1.142361 -3.87576,2.398708 -5.321583,3.744905 -0.289167,0.269239 -0.566091,0.54185 -0.831906,0.818098 -0.265821,0.276249 -0.520367,0.555938 -0.764172,0.838814 -0.243812,0.282876 -0.476927,0.569092 -0.700052,0.858214 -0.669395,0.867366 -1.248881,1.761835 -1.756216,2.678549 -0.169116,0.305571 -0.33024,0.613686 -0.484022,0.923978 -0.153781,0.310291 -0.300181,0.622828 -0.439957,0.937459 -0.139777,0.314629 -0.272732,0.631367 -0.399846,0.949954 -0.762677,1.911525 -1.309514,3.890767 -1.784494,5.896687 -0.158324,0.66864 -0.308675,1.340326 -0.456393,2.01335 -0.295447,1.346051 -0.580555,2.697864 -0.897674,4.043143 -0.1586,0.672656 -0.325101,1.343526 -0.505103,2.011395 -0.09001,0.333935 -0.183447,0.667107 -0.280813,0.999277 -0.292094,0.996508 -0.620171,1.984284 -1.002563,2.958043 -0.04636,-0.607911 -0.08817,-1.213121 -0.12495,-1.815401 -0.03678,-0.602281 -0.06843,-1.201546 -0.0947,-1.797647 -0.02628,-0.596101 -0.04731,-1.189201 -0.06215,-1.778574 -0.05934,-2.357496 -0.02343,-4.658792 0.137448,-6.886758 0.04022,-0.556991 0.08837,-1.109385 0.144676,-1.656912 0.05631,-0.547527 0.120999,-1.090132 0.194333,-1.627648 0.07333,-0.537515 0.155333,-1.070111 0.246617,-1.597067 0.273851,-1.580868 0.630626,-3.112999 1.082793,-4.588979 0.301448,-0.983987 0.645115,-1.942958 1.035116,-2.874853 1.365012,-3.261634 3.295257,-6.190824 5.950286,-8.69361 0.189644,-0.178771 0.38294,-0.35534 0.580034,-0.529725 0.1971,-0.174386 0.398056,-0.346642 0.602723,-0.516573 0.409338,-0.339864 0.833854,-0.670732 1.274167,-0.992372 0.440321,-0.321639 0.896644,-0.633934 1.368868,-0.936802 0.236119,-0.151434 0.476176,-0.300553 0.720439,-0.447192 0.24427,-0.146638 0.492567,-0.290949 0.745102,-0.432724 0.252536,-0.141774 0.509175,-0.281084 0.77009,-0.417927 0.260922,-0.136842 0.526323,-0.270961 0.795739,-0.402801 2.694213,-1.318414 5.816282,-2.385173 9.424573,-3.165857 -1.333827,-0.172106 -2.609808,-0.247022 -3.830068,-0.231488 -0.406749,0.0052 -0.807402,0.02034 -1.201826,0.04537 -1.183164,0.0751 -2.31165,0.238487 -3.386496,0.483362 -0.358313,0.08164 -0.710582,0.172418 -1.057144,0.271933 -0.346567,0.09951 -0.687332,0.207976 -1.022294,0.324871 -0.669929,0.233793 -1.316622,0.501643 -1.941011,0.801987 -0.312201,0.150171 -0.619006,0.308417 -0.920034,0.474483 -0.301034,0.166067 -0.596481,0.340039 -0.886494,0.521505 -0.580021,0.362932 -1.138184,0.756268 -1.674993,1.177825 -1.342035,1.053893 -2.550727,2.284764 -3.63541,3.661713 -0.216941,0.275391 -0.428855,0.556592 -0.635933,0.843418 -0.207084,0.286827 -0.4093,0.57919 -0.606668,0.876956 -0.197368,0.297767 -0.389938,0.600969 -0.577736,0.909182 -0.187798,0.308215 -0.370747,0.621603 -0.549122,0.939764 -0.17838,0.318162 -0.352408,0.641081 -0.521506,0.968697 -0.169103,0.327616 -0.333586,0.659742 -0.493559,0.996318 -0.159966,0.336574 -0.315274,0.677584 -0.466262,1.022623 -0.150982,0.345038 -0.297484,0.694278 -0.439627,1.047284 -0.142144,0.353006 -0.279877,0.709821 -0.413322,1.070301 -0.133451,0.36048 -0.26278,0.724547 -0.38768,1.092004 -0.124899,0.367457 -0.245535,0.738122 -0.36203,1.112061 -0.232988,0.747877 -0.44917,1.508204 -0.649415,2.279036 -0.200237,0.770831 -0.384408,1.552344 -0.553066,2.342167 -0.168658,0.789825 -0.321784,1.587954 -0.46002,2.392807 -0.138237,0.804852 -0.261596,1.616347 -0.370576,2.432264 -0.272444,2.039793 -0.455388,4.107951 -0.557673,6.173552 -0.122748,2.47872 -0.129341,4.953644 -0.03584,7.371434 0.06233,1.611861 0.169174,3.198377 0.315994,4.743524 0.07341,0.772573 0.156784,1.535003 0.24957,2.284954 0.09278,0.74995 0.195128,1.487607 0.306131,2.21097 0.111002,0.723363 0.230691,1.432335 0.35874,2.125148 0.256105,1.385627 0.545151,2.706166 0.862487,3.945812 0.03409,0.273613 0.0549,0.55398 0.06609,0.838486 0.0112,0.284504 0.01277,0.573278 0.0079,0.863475 -0.0098,0.580393 -0.04475,1.16683 -0.07793,1.738787 -0.03319,0.571956 -0.06459,1.129407 -0.06675,1.65132 -0.0022,0.521919 0.02483,1.008315 0.108183,1.438581 l -1.519795,6.114035 -0.950283,1.147575 -0.446531,-9.999677 c 0.0056,-0.403363 -0.02941,-0.912862 -0.09569,-1.518479 -0.03314,-0.302808 -0.07407,-0.62951 -0.121667,-0.979218 -0.04763,-0.34971 -0.101781,-0.722167 -0.161484,-1.116336 -0.238805,-1.576678 -0.565182,-3.499469 -0.903918,-5.689862 -0.338734,-2.190393 -0.690023,-4.648588 -0.97856,-7.296463 -0.360668,-3.309848 -0.623499,-6.916149 -0.641856,-10.666188 -0.0073,-1.500015 0.02462,-3.022787 0.104894,-4.559057 0.04014,-0.768135 0.09228,-1.539695 0.157835,-2.313232 0.262219,-3.094149 0.737288,-6.221947 1.500066,-9.304883 0.286043,-1.156101 0.612548,-2.305931 0.983493,-3.445351 0.247298,-0.759613 0.514348,-1.514433 0.802312,-2.263581 0.143982,-0.374574 0.293264,-0.747795 0.447854,-1.119295 0.309179,-0.743 0.639667,-1.479467 0.993031,-2.20834 0.706726,-1.457746 1.504133,-2.88475 2.401679,-4.271342 0.224386,-0.346647 0.455114,-0.69072 0.692162,-1.032158 0.237048,-0.341438 0.480636,-0.680124 0.730633,-1.016047 0.499999,-0.671845 1.026081,-1.332514 1.579643,-1.980469 0.190451,-0.222925 0.391166,-0.438439 0.601737,-0.646783 0.210565,-0.208346 0.430935,-0.409505 0.660595,-0.603381 0.229654,-0.193877 0.468776,-0.380455 0.716488,-0.559976 0.247718,-0.179522 0.504033,-0.351952 0.768779,-0.51723 0.264746,-0.165279 0.53768,-0.323665 0.81843,-0.474813 0.561491,-0.302297 1.153995,-0.576248 1.773313,-0.822702 0.928967,-0.369681 1.918531,-0.677076 2.954422,-0.923649 0.345302,-0.08219 0.695789,-0.157489 1.050902,-0.226226 0.710233,-0.137476 1.439026,-0.248424 2.182366,-0.332764 0.743334,-0.08434 1.50097,-0.142166 2.269171,-0.174273 0.7682,-0.03211 1.546822,-0.03829 2.331642,-0.01907 0.784826,0.01922 1.57592,0.06385 2.369133,0.133499 0.396607,0.03483 0.793824,0.07571 1.190978,0.122978 0.397153,0.04727 0.794301,0.100875 1.190977,0.160463 0.396676,0.05959 0.79285,0.125161 1.188018,0.196962 0.790344,0.143603 1.576538,0.311645 2.354664,0.50342 h 3.31e-4 c 0.388958,0.09586 0.776033,0.197739 1.160397,0.305471 0.768932,0.215523 1.52744,0.454811 2.271798,0.717152 h 3.31e-4 c 0.744263,0.262313 1.474189,0.547695 2.18565,0.855912 1.067331,0.462386 2.093258,0.976036 3.063592,1.539196 -0.170446,-0.180893 -0.343839,-0.358984 -0.520513,-0.534329 -0.353357,-0.350688 -0.719581,-0.690218 -1.099567,-1.017361 -0.189999,-0.163571 -0.383606,-0.324044 -0.580694,-0.481389 -0.197089,-0.157345 -0.3976,-0.311425 -0.602063,-0.462318 -0.817856,-0.603571 -1.695945,-1.154771 -2.643365,-1.646061 -0.947427,-0.491289 -1.964236,-0.922785 -3.059648,-1.287321 -0.273857,-0.09113 -0.552691,-0.178106 -0.836513,-0.260753 -0.283822,-0.08264 -0.572683,-0.160842 -0.866763,-0.234775 -0.294086,-0.07393 -0.593376,-0.143477 -0.898005,-0.20847 -0.609245,-0.129986 -1.239845,-0.241867 -1.893002,-0.334737 -0.653157,-0.09287 -1.328781,-0.166692 -2.028146,-0.220637 -0.349685,-0.02697 -0.705346,-0.04919 -1.067013,-0.06609 -0.361667,-0.0169 -0.729246,-0.02858 -1.103187,-0.03518 -1.49576,-0.02642 -3.090857,0.03052 -4.79449,0.17789 -0.851816,0.07369 -1.730866,0.16984 -2.638104,0.289689 -0.907238,0.119848 -1.842811,0.26326 -2.807774,0.43108 -0.482482,0.08391 -0.972465,0.174046 -1.469811,0.270288 -0.497345,0.09624 -1.00204,0.198644 -1.514536,0.307445 0.412336,-0.340964 0.848761,-0.69853 1.308362,-1.066028 0.459607,-0.367497 0.942394,-0.745049 1.447458,-1.125214 0.505063,-0.380164 1.032239,-0.763019 1.580953,-1.141983 0.27436,-0.189483 0.554212,-0.377998 0.839147,-0.564581 0.569866,-0.373164 1.160531,-0.738867 1.771341,-1.09003 0.916211,-0.526746 1.877509,-1.020722 2.880771,-1.458964 0.33442,-0.14608 0.673722,-0.286134 1.017362,-0.418914 0.687282,-0.26556 1.392475,-0.502699 2.115282,-0.704656 1.084212,-0.302936 2.207704,-0.526615 3.366764,-0.647442 3.08863,-0.321975 6.432214,0.0863 9.973038,1.666448 0.0024,0.0011 0.0048,0.0019 0.0072,0.003 h 3.31e-4 c 0.0026,0.0011 0.005,0.0025 0.0076,0.0036 2.655437,1.187337 5.421533,3.033867 8.274369,5.727017 -0.08085,-0.202486 -0.164601,-0.402779 -0.251221,-0.601077 -0.08661,-0.198298 -0.175957,-0.394691 -0.26864,-0.588584 -0.09268,-0.193892 -0.18867,-0.385501 -0.287716,-0.574773 -0.198093,-0.378543 -0.409301,-0.747702 -0.634622,-1.106472 -0.112657,-0.179384 -0.228635,-0.355934 -0.348546,-0.530054 -0.239822,-0.348237 -0.494552,-0.685889 -0.765159,-1.011771 -0.270599,-0.325883 -0.557087,-0.640258 -0.860844,-0.942063 -0.151822,-0.150847 -0.308015,-0.298737 -0.468566,-0.443246 h -3.25e-4 c -0.160596,-0.144515 -0.325551,-0.285796 -0.495188,-0.4238 -0.339276,-0.276007 -0.69675,-0.538702 -1.073917,-0.787189 C 59.14384,10.391351 58.534092,10.050721 57.87643,9.744749 57.437986,9.540767 56.97831,9.352328 56.496051,9.180169 56.254925,9.094089 56.008078,9.012014 55.755556,8.934213 55.503027,8.8564121 55.244753,8.7828841 54.980528,8.7135762 54.716311,8.6442695 54.446207,8.5791863 54.169995,8.5185875 52.236531,8.0943962 50.005628,7.8862824 47.426604,7.9309902 c -0.736868,0.012771 -1.50223,0.046024 -2.297122,0.1009473 -0.397447,0.027463 -0.802256,0.060321 -1.214654,0.098645 1.190111,-0.7379832 2.732136,-1.5113575 4.504807,-2.1843355 0.590888,-0.2243261 1.207324,-0.4376383 1.844993,-0.634618 0.956507,-0.2954703 1.960654,-0.5542539 2.997175,-0.7598981 1.036515,-0.2056436 2.105253,-0.3580982 3.191501,-0.4399576 0.362081,-0.027285 0.726312,-0.046527 1.091677,-0.057541 0.365364,-0.011014 0.732039,-0.013744 1.099566,-0.00723 z M 37.596269,53.352155 c 1.320993,0.06264 2.622057,0.172013 3.902409,0.329474 0.640176,0.07873 1.275,0.169731 1.904843,0.272591 0.629836,0.102859 1.254551,0.21766 1.873933,0.344929 2.477507,0.50908 4.870832,1.214594 7.176113,2.125478 l 4.082603,5.218994 c -0.02325,0.17798 -0.08617,0.276618 -0.169669,0.334079 -0.08351,0.05746 -0.187602,0.07375 -0.29331,0.08681 -1.062305,-0.362771 -2.123158,-0.74789 -3.184267,-1.129816 -1.061114,-0.381927 -2.122433,-0.760718 -3.18559,-1.110089 -0.531572,-0.174685 -1.063717,-0.341966 -1.596409,-0.498817 -0.532692,-0.15685 -1.066142,-0.30313 -1.600354,-0.435683 -0.267107,-0.06628 -0.534423,-0.129094 -0.801988,-0.188084 -0.535117,-0.117978 -1.071003,-0.220829 -1.608245,-0.304814 -0.805868,-0.125975 -1.614563,-0.210042 -2.426349,-0.241351 -1.08238,-0.04174 -2.170417,0.01037 -3.266146,0.182164 -0.273927,0.04295 -0.548466,0.0936 -0.823355,0.151915 -1.37446,0.291578 -2.761234,0.78017 -4.163489,1.516506 -0.28045,0.147268 -0.561376,0.304372 -0.843092,0.471853 -0.28171,0.167482 -0.564005,0.345496 -0.847031,0.534001 -0.283028,0.188504 -0.566919,0.387457 -0.851307,0.59779 -0.284395,0.210334 -0.569452,0.431897 -0.855259,0.664869 -0.06741,0.0078 -0.128234,0.01078 -0.182822,0.0095 -0.163765,-0.0038 -0.272477,-0.04602 -0.341967,-0.115744 -0.02317,-0.02325 -0.04184,-0.04966 -0.05689,-0.07859 -0.04513,-0.08677 -0.05638,-0.197185 -0.04965,-0.320268 0.174257,-0.318336 0.331329,-0.631091 0.483691,-0.941077 0.152368,-0.309986 0.300061,-0.617353 0.455743,-0.924964 0.155684,-0.307611 0.319214,-0.615399 0.503423,-0.926608 0.0921,-0.155605 0.189344,-0.311928 0.293303,-0.469552 0.207918,-0.315247 0.442904,-0.635301 0.71715,-0.963107 0.68562,-0.819514 1.617732,-1.687591 2.99356,-2.650928 0.275162,-0.192667 0.56802,-0.389239 0.880241,-0.589899 0.312226,-0.20066 0.643885,-0.405489 0.996319,-0.614888 l 0.168352,0.420886 1.34684,0.92595 -0.547155,-1.304748 z m 60.273921,0 -0.08418,0.378798 -0.547148,1.304747 1.346831,-0.92595 0.16836,-0.420886 c 1.057307,0.628198 1.926497,1.215407 2.650267,1.77167 h 3.2e-4 c 3.13613,2.410391 3.54021,4.240229 4.67283,6.309353 0.018,0.328221 -0.092,0.566937 -0.63133,0.505064 -0.57154,-0.465884 -1.14025,-0.885691 -1.70624,-1.26266 h -3.2e-4 c -0.28295,-0.188451 -0.56507,-0.366559 -0.84671,-0.534 h -3.3e-4 c -0.84504,-0.502388 -1.68427,-0.912202 -2.51841,-1.239971 h -3.2e-4 c -0.27799,-0.109225 -0.555368,-0.209423 -0.832243,-0.300868 h -3.26e-4 c -0.276866,-0.09144 -0.553141,-0.174118 -0.82895,-0.248586 h -3.26e-4 c -0.551705,-0.148952 -1.101262,-0.264956 -1.649022,-0.35085 -0.547861,-0.0859 -1.094177,-0.141704 -1.6385,-0.170984 -1.632978,-0.08784 -3.250868,0.06455 -4.859266,0.36992 -0.268067,0.0509 -0.53574,0.106077 -0.803305,0.165066 -0.267558,0.05899 -0.534881,0.121808 -0.801981,0.188084 -3.205264,0.795309 -6.379707,2.086089 -9.566627,3.174405 -0.157803,-0.0195 -0.311756,-0.04658 -0.399183,-0.206826 -3.57e-4,-6.36e-4 -9.69e-4,-9.68e-4 -0.0013,-0.0017 -4.71e-4,-8.81e-4 -8.27e-4,-0.0021 -0.0013,-0.003 -0.02845,-0.05376 -0.0497,-0.12172 -0.06116,-0.209457 l 4.082602,-5.218995 C 87.623478,54.602764 92.58627,53.6026 97.870216,53.352058 Z m -42.933394,3.998422 0.336711,0.126266 1.346839,0.33671 3.914245,5.134816 c 0.02478,0.153779 0.07092,0.310954 0.07727,0.46166 v 3.29e-4 c 0.0031,0.07523 -0.0036,0.14899 -0.02795,0.21965 -0.01218,0.03538 -0.02871,0.07015 -0.05064,0.103907 -0.02193,0.03375 -0.04928,0.0665 -0.08286,0.09832 l -2.441144,-1.178482 -3.451271,-4.798108 0.04209,-0.252532 z m 25.592867,0 0.337042,0.252532 0.04175,0.252532 -3.451265,4.798108 -2.441143,1.178482 c -0.03359,-0.03182 -0.0606,-0.06456 -0.08254,-0.09832 -0.02192,-0.03375 -0.03878,-0.06852 -0.05097,-0.103907 -0.02433,-0.07066 -0.03109,-0.144412 -0.02795,-0.21965 v -3.29e-4 c 0.0063,-0.150706 0.05249,-0.307881 0.07727,-0.46166 l 3.914244,-5.134816 1.346839,-0.33671 z m -37.68645,6.433318 0.327504,0.714192 c 1.380678,-0.0084 2.588212,0.06977 3.651191,0.224254 0.265745,0.03862 0.522282,0.08188 0.770421,0.129883 0.49627,0.09601 0.958339,0.210641 1.38958,0.342299 0.862486,0.263316 1.601932,0.595407 2.247472,0.986124 0.32277,0.195359 0.622284,0.405288 0.901613,0.628699 0.139668,0.111706 0.274297,0.226686 0.404446,0.34493 0.390466,0.354734 0.740037,0.738371 1.061096,1.146259 0.107019,0.135962 0.21094,0.274717 0.312048,0.415954 0.202217,0.282472 0.393444,0.574961 0.577405,0.876628 0.183961,0.301666 0.360763,0.612223 0.533672,0.930554 0.518725,0.954991 1.003898,1.979527 1.552677,3.038933 0.365853,0.70627 0.759857,1.428034 1.211033,2.155399 -0.675313,-0.190357 -1.207776,-0.367872 -1.837103,-0.554057 -0.314664,-0.09309 -0.653475,-0.188147 -1.046627,-0.288374 -0.393151,-0.100227 -0.840521,-0.205482 -1.372157,-0.318295 -0.08867,-0.02444 -0.190909,-0.04401 -0.305469,-0.05919 -0.114559,-0.01518 -0.241457,-0.02609 -0.379783,-0.03354 -0.829978,-0.04468 -2.068811,0.03622 -3.487769,0.07793 -0.472988,0.0139 -0.965918,0.02356 -1.470473,0.02269 -0.504554,-8.81e-4 -1.020671,-0.01229 -1.539855,-0.04011 -0.259591,-0.01392 -0.519883,-0.03198 -0.779958,-0.05491 -0.780213,-0.06881 -1.557914,-0.181617 -2.304352,-0.359069 -0.932181,-0.273083 -1.694972,-0.555669 -2.358609,-0.856899 -0.442426,-0.200821 -0.840643,-0.410023 -1.215965,-0.630014 -0.187663,-0.109997 -0.369748,-0.222566 -0.548472,-0.338354 -0.357448,-0.231576 -0.702126,-0.47551 -1.055172,-0.734251 -0.03902,-0.05297 -0.08048,-0.102186 -0.124295,-0.147638 -0.08764,-0.09091 -0.184451,-0.167228 -0.289357,-0.23083 -0.05246,-0.0318 -0.107128,-0.06016 -0.163428,-0.08582 -0.22518,-0.102643 -0.479682,-0.158175 -0.753648,-0.18085 -0.136983,-0.01134 -0.278808,-0.01435 -0.424177,-0.01118 -0.145369,0.0032 -0.294328,0.01261 -0.445545,0.02664 -0.302434,0.02805 -0.614049,0.07411 -0.924634,0.123635 0.05124,-0.133445 0.122654,-0.256088 0.20781,-0.371893 0.255475,-0.347416 0.633545,-0.633564 0.952917,-0.967381 h -0.29166 c 0.03228,-0.0019 0.05022,-0.0077 0.05557,-0.01743 0.0054,-0.0097 -0.0019,-0.02334 -0.02038,-0.04077 -0.07382,-0.0697 -0.325532,-0.200829 -0.655001,-0.389978 -0.329477,-0.18915 -0.736595,-0.436503 -1.121271,-0.739511 -0.09617,-0.07576 -0.190992,-0.155085 -0.282785,-0.237735 -0.09179,-0.08265 -0.180748,-0.168662 -0.265026,-0.258122 -0.08428,-0.08946 -0.163771,-0.182325 -0.237404,-0.278509 -0.147271,-0.192366 -0.270205,-0.398127 -0.356112,-0.616861 -0.04296,-0.109369 -0.07672,-0.221868 -0.09963,-0.337696 l 2.678536,-0.267675 c -0.215807,-0.260112 -0.474095,-0.512576 -0.579046,-0.737538 -0.02624,-0.05624 -0.04301,-0.110945 -0.04702,-0.163422 -0.008,-0.104956 0.03464,-0.201572 0.152249,-0.287717 0.0588,-0.04307 0.136372,-0.08358 0.235762,-0.121004 l 0.952249,0.208471 0.208472,0.357095 1.844999,-0.178547 0.476126,-1.190649 0.893067,0.29758 0.386693,0.387019 1.51782,-0.119033 0.416612,-1.011772 z m 49.780038,0 0.863142,0.178548 0.416612,1.011772 1.517826,0.119032 0.386688,-0.387018 0.893067,-0.297581 0.476132,1.190649 1.844991,0.178549 0.208475,-0.357096 0.952246,-0.208471 c 0.79513,0.299434 0.19355,0.789458 -0.238055,1.30968 l 2.678545,0.267658 c -0.34375,1.737425 -3.117861,2.753064 -3.037614,2.899186 0.0053,0.0097 0.02325,0.01546 0.05558,0.01742 H 99.34923 c 0.425821,0.445088 0.95575,0.805498 1.16071,1.339274 -0.776325,-0.123804 -1.559347,-0.225991 -2.189581,-0.07859 -0.126053,0.0295 -0.245824,0.06903 -0.358417,0.120348 -0.112591,0.05133 -0.217759,0.114246 -0.314343,0.191042 -0.09659,0.07679 -0.184681,0.167321 -0.262729,0.273247 -1.412207,1.034964 -2.692413,1.831297 -5.178219,2.559518 -3.980998,0.946409 -8.848961,0.05529 -10.267664,0.446206 -2.126531,0.451249 -2.905262,0.780012 -4.255887,1.160725 0.225588,-0.363681 0.436922,-0.726081 0.637579,-1.085756 0.802637,-1.438697 1.434834,-2.835254 2.126462,-4.108576 0.172908,-0.31833 0.34938,-0.628887 0.533347,-0.930554 1.839629,-3.016667 4.411882,-5.13682 11.315271,-5.09503 z m -47.934713,2.470079 c 0.325309,0.03244 0.627125,0.06032 0.918061,0.08648 -0.302402,-0.03535 -0.608533,-0.06413 -0.918061,-0.08648 z m 0.918061,0.08648 c 2.874337,0.33603 5.408464,1.292174 7.257993,3.496976 -2.582542,-3.177915 -3.754405,-3.181973 -7.257993,-3.496976 z m 45.171653,-0.08648 c -0.309179,0.02233 -0.615004,0.05085 -0.91707,0.08615 0.290523,-0.02613 0.592276,-0.05375 0.91707,-0.08615 z m -0.91707,0.08615 c -3.504656,0.315126 -4.67643,0.318975 -7.25931,3.497305 1.849747,-2.20506 4.384554,-3.16138 7.25931,-3.497305 z m -45.422876,0.444232 c -1.740067,0.03014 -3.721477,0.670085 -6.059119,2.207682 -0.292953,0.55088 -0.07615,0.591934 0,0.773708 6.151395,4.814814 10.59758,2.283836 15.892413,3.244115 -1.482932,-1.484551 -2.921379,-3.070614 -4.510395,-4.270683 a 3.6011027,3.0356401 0 0 1 0.105881,0.728988 3.6011027,3.0356401 0 0 1 -3.601209,3.035645 3.6011027,3.0356401 0 0 1 -3.60121,-3.035645 3.6011027,3.0356401 0 0 1 1.920949,-2.683481 c -0.0491,-1.23e-4 -0.09781,-0.0012 -0.14731,-3.29e-4 z m 46.589847,0 c -0.0495,-8.81e-4 -0.09819,2.06e-4 -0.147311,3.29e-4 a 3.6011027,3.0356401 0 0 1 1.920955,2.683481 3.6011027,3.0356401 0 0 1 -3.601209,3.035645 3.6011027,3.0356401 0 0 1 -3.601215,-3.035645 3.6011027,3.0356401 0 0 1 0.10588,-0.728988 c -1.589015,1.200069 -3.027463,2.786132 -4.510388,4.270683 5.294832,-0.960279 9.741018,1.570699 15.892414,-3.244115 0.07615,-0.181774 0.292953,-0.222828 0,-0.773708 -2.33765,-1.537597 -4.319053,-2.17754 -6.059126,-2.207682 z m -8.434832,3.063923 c -0.09073,0.108483 -0.17994,0.219494 -0.267323,0.334079 0.09086,-0.11515 0.179857,-0.226336 0.267323,-0.334079 z m -29.719522,6.36e-4 c 0.08729,0.107526 0.176326,0.21852 0.266998,0.333421 -0.08719,-0.114335 -0.176477,-0.225161 -0.266998,-0.333421 z m -18.160604,5.410366 c 0.674104,0 1.220572,0.546469 1.220572,1.220571 0,0.674103 -0.546468,1.220571 -1.220572,1.220571 -0.25279,0 -0.487489,-0.07686 -0.682292,-0.208469 -0.06494,-0.04387 -0.125631,-0.09374 -0.18085,-0.148955 -0.165661,-0.16566 -0.283987,-0.378822 -0.332766,-0.61719 -0.01626,-0.07945 -0.02466,-0.161694 -0.02466,-0.245957 0,-0.337051 0.136544,-0.642266 0.357429,-0.863146 0.110437,-0.11044 0.241973,-0.199646 0.388004,-0.26141 0.07301,-0.03088 0.149728,-0.05509 0.229182,-0.07135 0.07946,-0.01626 0.161698,-0.02466 0.245956,-0.02466 z m 66.040065,0 c 0.0843,0 0.16683,0.0084 0.24628,0.02466 0.1588,0.03253 0.30656,0.09613 0.43635,0.183809 0.32455,0.219364 0.53794,0.590879 0.53794,1.012101 0,0.421223 -0.21372,0.792737 -0.53827,1.012101 -0.12979,0.08768 -0.27755,0.151272 -0.43635,0.183809 -0.0794,0.01626 -0.16169,0.02467 -0.24595,0.02467 -0.16841,0 -0.32886,-0.03433 -0.47481,-0.09602 h -3.3e-4 c -0.14595,-0.06173 -0.27728,-0.151052 -0.387672,-0.26141 -0.05523,-0.05522 -0.105414,-0.115915 -0.149281,-0.18085 -0.04387,-0.06494 -0.08157,-0.134142 -0.11246,-0.207155 -0.03083,-0.07301 -0.05479,-0.149729 -0.071,-0.229185 -0.0163,-0.07946 -0.02502,-0.161693 -0.02502,-0.245956 0,-0.168526 0.03427,-0.329115 0.09601,-0.475142 0.03083,-0.07301 0.06862,-0.14222 0.112451,-0.207155 0.04387,-0.06494 0.09407,-0.12563 0.149281,-0.18085 0.110401,-0.110357 0.242061,-0.199679 0.388011,-0.26141 0.14595,-0.06169 0.3064,-0.09601 0.4748,-0.09601 z m -61.431356,3.177694 c 0.674104,0 1.220572,0.546469 1.220572,1.220571 0,0.58984 -0.418418,1.082097 -0.974615,1.19591 -0.07945,0.01626 -0.161691,0.02466 -0.245957,0.02466 -0.08426,0 -0.1665,-0.0084 -0.245956,-0.02466 -0.07945,-0.01626 -0.156173,-0.04047 -0.229182,-0.07135 -0.07301,-0.03088 -0.14222,-0.06858 -0.20716,-0.112455 -0.06494,-0.04387 -0.125625,-0.09373 -0.18085,-0.148954 -0.05522,-0.05522 -0.105085,-0.115916 -0.148952,-0.180851 -0.04387,-0.06494 -0.08158,-0.134141 -0.112453,-0.207154 -0.06177,-0.146028 -0.09602,-0.306616 -0.09602,-0.475143 0,-0.08426 0.0084,-0.166499 0.02466,-0.245955 0.09755,-0.476736 0.473217,-0.8524 0.949952,-0.949954 0.07946,-0.01626 0.161691,-0.02466 0.245956,-0.02466 z m 56.822657,0 c 0.08425,0 0.166825,0.0084 0.24628,0.02466 0.158795,0.03253 0.306557,0.09613 0.436344,0.183809 0.324551,0.219363 0.537941,0.590878 0.537941,1.012101 0,0.421222 -0.213721,0.792736 -0.538273,1.012101 -0.12978,0.08768 -0.277547,0.151271 -0.436336,0.183808 -0.07946,0.01626 -0.161698,0.02466 -0.245956,0.02466 -0.168416,0 -0.328866,-0.03433 -0.474815,-0.09602 h -3.31e-4 c -0.145948,-0.06173 -0.277274,-0.151053 -0.387673,-0.26141 -0.05522,-0.05522 -0.105416,-0.115915 -0.149282,-0.18085 -0.04388,-0.06494 -0.08158,-0.134141 -0.11246,-0.207155 -0.03088,-0.07301 -0.05476,-0.14973 -0.07102,-0.229186 -0.01626,-0.07945 -0.02499,-0.161693 -0.02499,-0.245956 0,-0.08426 0.0087,-0.166499 0.02499,-0.245955 0.01626,-0.07945 0.04014,-0.156172 0.07102,-0.229186 0.03088,-0.07301 0.06858,-0.14222 0.11246,-0.207156 0.04387,-0.06494 0.09406,-0.125628 0.149282,-0.180849 0.110399,-0.110357 0.242056,-0.19968 0.388004,-0.26141 0.145949,-0.06169 0.306399,-0.09601 0.474815,-0.09601 z m -45.879602,0.715508 c 0.674103,0 1.220572,0.546469 1.220572,1.220572 0,0.589838 -0.418426,1.082096 -0.974617,1.195909 -0.07946,0.01626 -0.161696,0.02466 -0.245955,0.02466 -0.421314,0 -0.792755,-0.213601 -1.0121,-0.538275 -0.04388,-0.06494 -0.08158,-0.134142 -0.112461,-0.207155 -0.06176,-0.146027 -0.09601,-0.306615 -0.09601,-0.475141 0,-0.08426 0.0084,-0.166499 0.02466,-0.245956 0.01626,-0.07946 0.04047,-0.156172 0.07135,-0.229186 0.185298,-0.438081 0.618981,-0.74543 1.124561,-0.74543 z m 34.936547,0 c 0.08426,0 0.166825,0.0084 0.246287,0.02466 0.158789,0.03254 0.306551,0.09613 0.436337,0.183809 0.324558,0.219364 0.537947,0.590878 0.537947,1.012101 0,0.421221 -0.21372,0.792736 -0.538272,1.0121 -0.129786,0.08768 -0.277548,0.151271 -0.436343,0.183809 -0.07946,0.01626 -0.161691,0.02466 -0.245956,0.02466 -0.168416,0 -0.328866,-0.03433 -0.474814,-0.09601 h -3.31e-4 c -0.145942,-0.06173 -0.277269,-0.151052 -0.387673,-0.26141 -0.05522,-0.05522 -0.105416,-0.115915 -0.149283,-0.18085 -0.04388,-0.06494 -0.08158,-0.134141 -0.112453,-0.207155 -0.06177,-0.146027 -0.09602,-0.306616 -0.09602,-0.475141 0,-0.168526 0.03425,-0.329115 0.09602,-0.475142 0.03088,-0.07301 0.06858,-0.14222 0.112453,-0.207155 0.04387,-0.06494 0.09407,-0.12563 0.149283,-0.18085 0.110404,-0.110358 0.242055,-0.199679 0.388004,-0.26141 0.145948,-0.06169 0.306398,-0.09601 0.474814,-0.09601 z m -39.397947,0.687559 c 0.898719,5.9e-5 1.627258,0.7286 1.627321,1.627318 -6.3e-5,0.898718 -0.728602,1.627259 -1.627321,1.627319 -0.224678,-1.5e-5 -0.438621,-0.04556 -0.633304,-0.127911 -0.292023,-0.123527 -0.540696,-0.329855 -0.716162,-0.58957 -0.05849,-0.08657 -0.10877,-0.179194 -0.149945,-0.276535 -0.04117,-0.09734 -0.07302,-0.199541 -0.0947,-0.305472 -0.02169,-0.105932 -0.03321,-0.215491 -0.03322,-0.327831 7e-6,-0.11234 0.01153,-0.2219 0.03322,-0.327831 0.04337,-0.211862 0.127662,-0.408865 0.24464,-0.582008 0.05849,-0.08657 0.125313,-0.167073 0.198932,-0.240694 0.07362,-0.07362 0.154125,-0.140446 0.240694,-0.198935 0.08657,-0.05849 0.179195,-0.108765 0.276536,-0.14994 0.194683,-0.08235 0.408626,-0.127896 0.633304,-0.12791 z m 43.859346,0 c 0.112339,7e-6 0.222228,0.01153 0.32816,0.03321 0.105817,0.02168 0.208223,0.05357 0.305469,0.0947 0.583908,0.247119 0.993641,0.825475 0.993686,1.499409 -3.9e-5,0.673935 -0.410109,1.25229 -0.994011,1.499408 -0.09725,0.04114 -0.199652,0.07301 -0.305475,0.0947 -0.105932,0.02169 -0.21549,0.0332 -0.327829,0.03321 -0.449362,-3e-5 -0.856054,-0.182303 -1.150534,-0.476785 -0.07362,-0.07362 -0.14012,-0.154123 -0.198608,-0.240694 -0.05849,-0.08657 -0.109094,-0.179195 -0.15027,-0.276537 -0.08235,-0.194683 -0.127896,-0.408622 -0.127909,-0.633303 2e-5,-0.224679 0.04556,-0.438619 0.127909,-0.633302 0.08235,-0.194684 0.201638,-0.369989 0.348878,-0.51723 0.29448,-0.294482 0.701172,-0.476756 1.150534,-0.476786 z m -35.399526,2.798894 c 0.898718,5.9e-5 1.627263,0.7286 1.627321,1.627319 -5.8e-5,0.898719 -0.728603,1.627263 -1.627321,1.627321 -0.224678,-2e-5 -0.438615,-0.04556 -0.633304,-0.127909 -0.389365,-0.164707 -0.701401,-0.476741 -0.866101,-0.86611 -0.04118,-0.09734 -0.07302,-0.19954 -0.0947,-0.305471 -0.02169,-0.105932 -0.0332,-0.215492 -0.03322,-0.327831 1.3e-5,-0.11234 0.01153,-0.221901 0.03322,-0.327831 0.06504,-0.317794 0.222712,-0.601841 0.443572,-0.822702 0.07362,-0.07362 0.154124,-0.140447 0.240693,-0.198936 0.259719,-0.175465 0.572818,-0.277828 0.90984,-0.27785 z m 26.939707,0 c 0.112333,8e-6 0.222228,0.01153 0.328159,0.03321 0.105817,0.02168 0.208224,0.05357 0.305469,0.0947 0.583908,0.247117 0.993641,0.825473 0.993686,1.499408 -4.5e-5,0.673936 -0.410109,1.252291 -0.994016,1.499412 -0.09725,0.04113 -0.199653,0.07301 -0.30547,0.09469 -0.105931,0.02169 -0.215495,0.03321 -0.327828,0.03322 -0.449362,-3.2e-5 -0.856055,-0.182307 -1.150534,-0.476787 -0.07362,-0.07362 -0.14012,-0.154125 -0.198609,-0.240696 -0.05849,-0.08657 -0.109094,-0.179194 -0.150269,-0.276535 -0.08235,-0.194684 -0.127897,-0.408624 -0.127909,-0.633303 1.2e-5,-0.22468 0.04556,-0.438619 0.127909,-0.633303 0.04117,-0.09734 0.09178,-0.189964 0.150269,-0.276536 0.05849,-0.08657 0.124988,-0.167074 0.198609,-0.240694 0.294479,-0.294483 0.701172,-0.476756 1.150534,-0.476786 z m -32.390185,1.641458 c 0.898711,6.3e-5 1.627257,0.728602 1.627314,1.62732 -6.4e-5,0.898718 -0.728603,1.627251 -1.627314,1.627314 -0.224685,-1.2e-5 -0.438621,-0.04556 -0.633305,-0.127909 -0.09734,-0.04117 -0.189967,-0.09145 -0.276536,-0.149938 -0.173144,-0.116977 -0.322655,-0.266489 -0.439626,-0.439632 -0.05849,-0.08657 -0.10877,-0.179189 -0.149945,-0.276531 -0.04117,-0.09735 -0.07301,-0.199544 -0.0947,-0.305475 -0.02168,-0.105932 -0.0332,-0.21549 -0.03321,-0.327829 7e-6,-0.112339 0.01153,-0.221903 0.03321,-0.327835 0.02169,-0.105931 0.05353,-0.208128 0.0947,-0.305469 0.08235,-0.194685 0.201637,-0.36999 0.348878,-0.51723 0.07362,-0.07362 0.154119,-0.140447 0.240693,-0.198935 0.08657,-0.05849 0.179195,-0.108766 0.276536,-0.149941 0.09734,-0.04117 0.199538,-0.07301 0.30547,-0.0947 0.105931,-0.02169 0.215489,-0.0332 0.327835,-0.03321 z m 37.840663,0 c 0.112339,8e-6 0.222228,0.01153 0.32816,0.03321 0.105823,0.02168 0.208222,0.05357 0.305474,0.0947 0.583909,0.247118 0.993642,0.825471 0.993687,1.49941 -5.1e-5,0.673932 -0.410109,1.252292 -0.994017,1.499405 -0.09725,0.04114 -0.199652,0.07302 -0.305475,0.0947 -0.105932,0.02169 -0.21549,0.0332 -0.327829,0.03321 -0.449355,-3.2e-5 -0.856048,-0.182301 -1.150534,-0.476781 -0.07362,-0.07362 -0.140113,-0.154125 -0.198602,-0.2407 -0.05849,-0.08657 -0.109094,-0.179188 -0.150269,-0.27653 -0.08235,-0.194683 -0.127897,-0.408626 -0.127916,-0.633304 1.9e-5,-0.224678 0.04556,-0.438622 0.127916,-0.633305 0.04117,-0.09734 0.09178,-0.189964 0.150269,-0.276534 0.05849,-0.08657 0.124982,-0.167075 0.198602,-0.240695 0.294486,-0.294482 0.701179,-0.476755 1.150534,-0.476786 z m -44.574853,0.196304 c 0.674103,-10e-7 1.220571,0.546471 1.220571,1.220573 0,0.589838 -0.418419,1.082093 -0.974616,1.195908 -0.07945,0.01626 -0.16169,0.02466 -0.245955,0.02466 -0.08426,0 -0.166495,-0.0084 -0.245956,-0.02466 -0.07945,-0.01626 -0.156168,-0.04047 -0.229183,-0.07135 -0.146031,-0.06177 -0.277568,-0.15097 -0.388004,-0.261412 -0.110442,-0.110436 -0.199645,-0.241973 -0.261412,-0.388003 -0.03088,-0.07301 -0.0551,-0.149729 -0.07135,-0.229184 -0.01626,-0.07945 -0.02466,-0.161696 -0.02466,-0.245955 0,-0.08426 0.0084,-0.166501 0.02466,-0.245956 0.01626,-0.07945 0.04048,-0.156174 0.07135,-0.229187 0.06177,-0.146027 0.15097,-0.277564 0.261412,-0.388005 0.110436,-0.11044 0.241973,-0.199645 0.388004,-0.26141 0.146024,-0.06177 0.306614,-0.09602 0.475139,-0.09602 z m 51.309036,0 c 0.08426,0 0.166832,0.0084 0.246288,0.02466 0.158795,0.03254 0.306557,0.09613 0.436343,0.183808 0.324552,0.219364 0.537941,0.590878 0.537941,1.012102 0,0.421226 -0.213714,0.792736 -0.538272,1.012101 -0.129786,0.08768 -0.277549,0.151274 -0.436344,0.183808 -0.07945,0.01626 -0.16169,0.02466 -0.245956,0.02466 -0.168416,0 -0.328859,-0.03433 -0.474807,-0.09602 h -3.31e-4 c -0.145948,-0.06172 -0.277275,-0.151041 -0.387679,-0.261401 -0.05522,-0.05522 -0.105409,-0.115915 -0.149283,-0.18085 -0.04387,-0.06494 -0.08158,-0.134139 -0.112453,-0.207154 -0.03088,-0.07301 -0.05476,-0.149728 -0.07103,-0.229183 -0.01626,-0.07945 -0.02499,-0.161697 -0.02499,-0.245956 0,-0.168524 0.03425,-0.329113 0.09602,-0.475142 0.03088,-0.07301 0.06858,-0.142221 0.112454,-0.207156 0.04388,-0.06494 0.09406,-0.125629 0.149282,-0.180849 0.110405,-0.110358 0.242062,-0.19968 0.388011,-0.261411 0.145948,-0.06169 0.306391,-0.09601 0.474807,-0.09601 z m -75.408079,0.635605 c 0.07057,-0.0018 0.13998,0.0051 0.20452,0.0194 0.129086,0.02861 0.239115,0.08705 0.302516,0.167368 0.0317,0.04016 0.05167,0.08588 0.05655,0.135802 l 1.503025,15.371917 c -0.15779,0.53623 -0.299882,1.05104 -0.427135,1.54543 -0.127248,0.4944 -0.239759,0.96832 -0.338354,1.42345 -0.394379,1.82051 -0.56709,3.33717 -0.578391,4.63272 -0.0028,0.32388 0.0047,0.634 0.02105,0.93154 0.0164,0.29753 0.04188,0.58247 0.07562,0.85624 0.101248,0.8213 0.276397,1.54161 0.499802,2.19551 0.148939,0.43594 0.319372,0.8424 0.503753,1.22977 0.09219,0.1937 0.187849,0.38246 0.286069,0.56788 0.196445,0.37084 0.402994,0.72787 0.61226,1.08115 -0.08211,-0.20675 -0.158298,-0.41392 -0.228527,-0.62179 -0.07023,-0.2079 -0.134514,-0.41642 -0.193346,-0.62541 -0.353013,-1.25397 -0.505205,-2.52744 -0.508023,-3.81529 -0.0019,-0.85855 0.06253,-1.72344 0.178215,-2.59337 0.05784,-0.43498 0.128603,-0.87111 0.21012,-1.30837 0.244549,-1.31178 0.587166,-2.6332 0.976257,-3.95896 0.259394,-0.88384 0.53945,-1.76981 0.825003,-2.656194 0.571105,-1.772753 1.163978,-3.547523 1.656915,-5.312711 l 0.892736,-0.238059 0.357099,1.190316 c 0.03471,0.11573 0.0979,0.213288 0.182166,0.29495 0.04213,0.04085 0.08955,0.07757 0.141387,0.110812 0.05185,0.03322 0.107935,0.06287 0.167697,0.08911 0.119529,0.05256 0.253088,0.09165 0.393597,0.120019 0.140508,0.02838 0.288142,0.04613 0.435357,0.05523 0.294423,0.01826 0.587821,0.0032 0.823354,-0.02596 0.117773,-0.01451 0.220892,-0.03239 0.302517,-0.05128 0.08162,-0.0189 0.141762,-0.03888 0.172959,-0.0572 l 0.297579,-0.71419 0.922662,-0.148952 c 0.143568,0.816342 0.310916,1.778907 0.548466,2.755488 0.05939,0.244141 0.123156,0.489102 0.192029,0.732935 0.06887,0.243833 0.142806,0.486632 0.222611,0.726032 0.159616,0.47879 0.342692,0.944464 0.554714,1.380714 l -1.190316,1.51782 c -0.04361,0.419 -0.0769,0.82085 -0.100949,1.20676 -0.07214,1.15771 -0.05989,2.17266 0.01513,3.08134 0.05001,0.6058 0.127839,1.16425 0.22721,1.68651 0.04969,0.26113 0.104792,0.51328 0.164414,0.75759 0.298107,1.22158 0.710207,2.24981 1.136389,3.25464 0.34095,0.80388 0.690871,1.59273 0.998293,2.45332 -0.152159,-0.51134 -0.297464,-1.01923 -0.433378,-1.52243 -0.271834,-1.00642 -0.505961,-1.99413 -0.681644,-2.95245 -0.08784,-0.47917 -0.161003,-0.951 -0.217017,-1.41425 -0.08403,-0.69488 -0.129437,-1.37046 -0.127254,-2.02222 7.25e-4,-0.21726 0.0068,-0.43168 0.01841,-0.6435 0.01161,-0.21182 0.02882,-0.42101 0.05195,-0.62706 0.02313,-0.20605 0.05216,-0.409 0.08747,-0.60897 0.0353,-0.19998 0.07682,-0.397 0.124951,-0.59056 0.04813,-0.19355 0.102807,-0.38367 0.164407,-0.5705 l 0.803629,-0.23806 c 0.0512,0.27802 0.106453,0.5546 0.165724,0.82994 0.05927,0.27533 0.122565,0.54951 0.189402,0.82237 0.133667,0.54571 0.282034,1.08643 0.442916,1.62338 0.321765,1.07388 0.693747,2.1318 1.099898,3.17998 0.203075,0.5241 0.414581,1.04582 0.632642,1.56584 0.654174,1.56004 1.36673,3.10531 2.082403,4.65672 v 0.59515 c -0.45262,0.11037 -0.881824,0.24432 -1.29094,0.3982 -0.204558,0.0769 -0.404102,0.15881 -0.599103,0.2453 -0.195007,0.0865 -0.385484,0.17743 -0.571819,0.27259 -0.186333,0.0952 -0.368602,0.19463 -0.547149,0.29758 -0.178545,0.10294 -0.353153,0.20942 -0.524795,0.31928 -0.171642,0.10986 -0.340103,0.22314 -0.505719,0.33901 -0.496856,0.34764 -0.968539,0.72019 -1.427071,1.10615 -0.305685,0.2573 -0.605459,0.52068 -0.90293,0.7862 -0.594954,0.53103 -1.180695,1.07128 -1.785155,1.59279 0.02772,-0.58378 0.04549,-1.13831 0.05393,-1.66546 0.0085,-0.52716 0.0076,-1.02709 -0.0019,-1.50138 -0.0096,-0.47431 -0.02799,-0.92295 -0.05425,-1.34815 -0.02628,-0.42522 -0.06056,-0.82687 -0.102266,-1.20677 -0.125097,-1.13966 -0.316496,-2.08374 -0.557343,-2.8834 -0.08028,-0.26655 -0.166234,-0.517 -0.256811,-0.75331 -0.09057,-0.23632 -0.185825,-0.45865 -0.285412,-0.6685 -0.09958,-0.20985 -0.203419,-0.40734 -0.310732,-0.59449 -0.429242,-0.74862 -0.915045,-1.33073 -1.416546,-1.86703 -0.250747,-0.26816 -0.505503,-0.5249 -0.75891,-0.78522 0.206983,0.72868 0.590207,1.41794 0.944359,2.15244 0.265618,0.55088 0.51487,1.12735 0.661258,1.76476 0.04879,0.21247 0.08611,0.43158 0.108839,0.65896 0.05681,0.56843 0.02208,1.18773 -0.154221,1.8782 -0.07052,0.27619 -0.163739,0.5638 -0.282778,0.86414 -0.05952,0.15017 -0.125428,0.30331 -0.198278,0.46 -0.145706,0.31342 -0.318977,0.64033 -0.522823,0.98186 -0.101922,0.17076 -0.211487,0.34519 -0.329146,0.52348 -0.235316,0.35657 -0.502849,0.72866 -0.805932,1.11733 -0.151535,0.19432 -0.312035,0.39263 -0.481718,0.59548 -0.339365,0.40569 -0.715706,0.82881 -1.132444,1.27055 -0.145414,0.15413 -0.285686,0.31818 -0.42286,0.4906 -0.411528,0.51724 -0.794925,1.11114 -1.203475,1.74798 -0.272369,0.42458 -0.555873,0.86814 -0.866432,1.32088 -0.155283,0.22636 -0.317214,0.45493 -0.487966,0.68459 -0.170758,0.22966 -0.350398,0.46038 -0.540576,0.69085 -0.159623,-0.27845 -0.323852,-0.544 -0.491256,-0.801 -0.502207,-0.77099 -1.031979,-1.46595 -1.544787,-2.20769 -0.170935,-0.24724 -0.340204,-0.49966 -0.505719,-0.76186 -0.165514,-0.26221 -0.32723,-0.53414 -0.484021,-0.82041 -0.313582,-0.57254 -0.606561,-1.20214 -0.865446,-1.92555 -0.06472,-0.18086 -0.127483,-0.36751 -0.187753,-0.56064 -0.06028,-0.19313 -0.118206,-0.39289 -0.173621,-0.59944 -0.05541,-0.20653 -0.108025,-0.4201 -0.15816,-0.64119 -0.05013,-0.22109 -0.0976,-0.44979 -0.142047,-0.68657 -0.04445,-0.23677 -0.08595,-0.48163 -0.124295,-0.73524 -0.115044,-0.76081 -0.201784,-1.59981 -0.254502,-2.53255 -0.0703,-1.24366 -0.08038,-2.6537 -0.01677,-4.26673 0.06361,-1.61304 0.200924,-3.42911 0.424833,-5.48435 l 3.496975,-18.288193 c 0.05069,-0.174754 0.151611,-0.298352 0.275219,-0.379127 0.123608,-0.08078 0.269893,-0.11873 0.411025,-0.12232 z m 99.507122,0 c 0.28227,0.0071 0.58486,0.151935 0.68624,0.501446 l 3.49698,18.288191 c 1.79128,16.44196 -1.96958,17.56795 -4.52354,22.02322 -0.19019,-0.23046 -0.3695,-0.46119 -0.54026,-0.69085 -0.17075,-0.22966 -0.33268,-0.45823 -0.48796,-0.68459 -0.31055,-0.45274 -0.5944,-0.89629 -0.86676,-1.32087 -0.40856,-0.63684 -0.79162,-1.23074 -1.20315,-1.74799 -0.13717,-0.17242 -0.27778,-0.33646 -0.42319,-0.4906 -1.87533,-1.98779 -2.93466,-3.59716 -3.47034,-4.9487 -0.11904,-0.30034 -0.21226,-0.58794 -0.28278,-0.86414 -0.0352,-0.13809 -0.0648,-0.27353 -0.0891,-0.40608 -0.0487,-0.26512 -0.0764,-0.51926 -0.0861,-0.76418 -0.0391,-0.97967 0.20751,-1.80863 0.53433,-2.57102 0.0817,-0.1906 0.16859,-0.37701 0.25714,-0.56064 0.35415,-0.7345 0.73704,-1.42376 0.94403,-2.15243 -1.90055,1.95238 -3.87081,3.7009 -3.74425,11.60824 0.009,0.52717 0.0263,1.08168 0.0539,1.66547 -0.6044,-0.52146 -1.18994,-1.06182 -1.78484,-1.5928 h -3.1e-4 c -0.29742,-0.26546 -0.59699,-0.52894 -0.90261,-0.7862 h -3.4e-4 c -0.30568,-0.25731 -0.61715,-0.50866 -0.9381,-0.75069 -0.16049,-0.12103 -0.32301,-0.23957 -0.48863,-0.35546 -0.16562,-0.11587 -0.33408,-0.22915 -0.50572,-0.339 h -3.3e-4 c -0.17157,-0.10981 -0.34633,-0.21638 -0.5248,-0.31929 h -3.3e-4 c -0.7141,-0.41174 -1.48693,-0.76485 -2.34677,-1.03084 h -3.3e-4 c -0.21499,-0.0665 -0.435263,-0.12764 -0.661576,-0.18283 v -0.59515 c 0.715666,-1.5514 1.428216,-3.09668 2.082406,-4.65672 0.4361,-1.04002 0.84628,-2.08665 1.21431,-3.14613 0.18402,-0.52973 0.35767,-1.06275 0.51854,-1.59969 0.16089,-0.53695 0.30893,-1.07766 0.4426,-1.62338 0.13367,-0.54571 0.25274,-1.09627 0.35512,-1.65231 l 0.80363,0.23807 c 0.98563,2.98913 0.20519,6.86122 -1.0121,10.95193 0.30742,-0.86059 0.65734,-1.64944 0.99829,-2.45331 0.42618,-1.00484 0.83861,-2.03306 1.13673,-3.25464 0.0596,-0.24431 0.11471,-0.49647 0.1644,-0.7576 0.0994,-0.52225 0.17721,-1.08071 0.22721,-1.68651 0.0751,-0.90867 0.0873,-1.92363 0.0152,-3.08134 -0.024,-0.3859 -0.0576,-0.78776 -0.10127,-1.20676 l -1.19033,-1.51782 c 0.42406,-0.872494 0.73182,-1.863097 0.96936,-2.839681 0.11878,-0.488287 0.21992,-0.973161 0.30942,-1.437916 0.0895,-0.464754 0.16727,-0.909401 0.23906,-1.317569 l 0.92266,0.148951 0.29758,0.714191 c 0.15598,0.09174 1.03164,0.22107 1.73418,0.07924 0.14052,-0.02838 0.27407,-0.06748 0.3936,-0.120019 0.11952,-0.05256 0.22482,-0.118257 0.30909,-0.19992 h 3.2e-4 c 0.0421,-0.04085 0.0788,-0.08578 0.1095,-0.134812 0.0307,-0.04906 0.055,-0.102273 0.0723,-0.160139 l 0.3571,-1.190315 0.89274,0.23806 c 1.97173,7.060739 5.5438,14.276419 2.91661,20.892099 0.20927,-0.35328 0.41615,-0.71031 0.61259,-1.08115 0.0982,-0.18542 0.19388,-0.37418 0.28607,-0.56788 0.18438,-0.38737 0.35482,-0.79383 0.50375,-1.22977 0.22341,-0.6539 0.39823,-1.37421 0.49947,-2.19552 0.0337,-0.27376 0.0596,-0.5587 0.0759,-0.85623 0.0164,-0.29755 0.0235,-0.60766 0.0207,-0.93154 -0.0169,-1.94333 -0.39713,-4.38416 -1.34387,-7.60161 l 1.50302,-15.371913 c 0.005,-0.04921 0.0249,-0.09408 0.0558,-0.133828 4.6e-4,-5.9e-4 5.3e-4,-0.0014 8.8e-4,-0.0019 0.0317,-0.04008 0.0751,-0.07467 0.12659,-0.10292 0.0515,-0.02822 0.11148,-0.05016 0.17592,-0.06445 0.0645,-0.01426 0.13375,-0.02119 0.2042,-0.0194 z m -57.309954,5.551433 c -0.568757,0.713408 -1.227958,1.375365 -1.778575,2.09917 -0.330368,0.434281 -0.621571,0.890751 -0.830921,1.394186 -0.07676,0.219206 -0.138758,0.424444 -0.187753,0.615876 -0.049,0.191431 -0.08507,0.369137 -0.110157,0.533672 -0.07526,0.493597 -0.05143,0.867978 0.01907,1.13541 0.0705,0.267423 0.187748,0.42781 0.299882,0.492897 l 0.820734,0.462973 c 0.127202,-0.178826 0.252885,-0.346192 0.377148,-0.502436 0.124269,-0.156237 0.247253,-0.301283 0.368609,-0.436013 0.121355,-0.13473 0.24126,-0.258917 0.359726,-0.373203 0.11846,-0.114293 0.235248,-0.218773 0.35085,-0.313697 0.115598,-0.09492 0.229871,-0.180506 0.342623,-0.257135 0.225512,-0.153254 0.445341,-0.270918 0.659609,-0.357423 0.321402,-0.129761 0.630307,-0.189313 0.926938,-0.193016 0.09887,-0.0012 0.196477,0.0038 0.292647,0.01445 0.288512,0.03188 0.564717,0.11477 0.829279,0.234114 0.176376,0.07957 0.347649,0.175403 0.513616,0.283116 0.33192,0.215426 0.643134,0.478403 0.934497,0.754965 0.291368,0.276561 0.562865,0.566448 0.815139,0.835527 0.126135,0.13454 0.247362,0.263925 0.364003,0.383728 0.116641,0.119802 0.228725,0.23003 0.336049,0.326521 0.160985,0.144726 0.311584,0.258693 0.452124,0.326837 0.04685,0.02273 0.0925,0.04017 0.137116,0.05232 0.08881,0.04801 0.182219,0.08659 0.279171,0.118371 0.0048,0.0018 0.009,0.0044 0.01381,0.0062 0.05746,0.0185 0.118926,0.02889 0.178878,0.04246 0.03422,0.0079 0.06695,0.01823 0.101935,0.02431 0.01249,0.0018 0.02391,0.0062 0.0365,0.0088 0.07751,0.01251 0.158903,0.01771 0.239707,0.0237 0.01022,6.34e-4 0.01998,0.0026 0.03025,0.0035 0.104601,0.007 0.211735,0.0079 0.320925,0.0062 l -0.0013,1.812774 h -3.31e-4 c -0.146859,0.004 -0.295111,-0.007 -0.444889,-0.0299 -0.0018,-2.8e-4 -0.0035,-6.4e-4 -0.0053,-8.8e-4 -0.147673,-0.0232 -0.296924,-0.0597 -0.447523,-0.10917 -0.0052,-0.002 -0.01031,-0.004 -0.01546,-0.005 -0.140668,-0.047 -0.282849,-0.107854 -0.426144,-0.178544 -0.06779,-0.0336 -0.136792,-0.0768 -0.205182,-0.11575 -0.09162,-0.0521 -0.182847,-0.10126 -0.27555,-0.16309 -0.07311,-0.0489 -0.147495,-0.10904 -0.221293,-0.16409 -0.08991,-0.067 -0.179348,-0.12955 -0.270288,-0.20583 -0.08723,-0.0733 -0.175848,-0.16007 -0.264046,-0.24201 -0.07824,-0.07267 -0.15576,-0.138758 -0.234775,-0.218335 -0.109445,-0.110311 -0.220829,-0.23691 -0.331774,-0.360716 -0.06134,-0.06844 -0.121667,-0.128615 -0.183484,-0.201234 -0.173309,-0.203675 -0.34842,-0.422817 -0.525445,-0.65994 -0.02391,-0.04639 -0.06644,-0.09889 -0.124957,-0.153227 -0.05852,-0.05434 -0.132859,-0.110532 -0.220306,-0.164408 -0.174894,-0.107751 -0.402092,-0.206009 -0.658622,-0.261412 -0.06414,-0.01387 -0.130156,-0.02526 -0.197616,-0.03322 -0.202382,-0.02386 -0.418044,-0.01858 -0.637581,0.02959 -0.07307,0.01603 -0.147074,0.03703 -0.220637,0.06312 -0.07357,0.02615 -0.147291,0.05772 -0.220637,0.09502 -0.146871,0.07467 -0.292648,0.172609 -0.434365,0.298241 -0.08438,0.100396 -0.163853,0.20438 -0.241355,0.309747 -0.154997,0.210731 -0.302307,0.426869 -0.466918,0.630667 -0.164611,0.203798 -0.346459,0.395246 -0.57017,0.556365 -0.335559,0.241672 -0.765432,0.415222 -1.373144,0.460342 -0.535549,-0.0846 -0.977969,-0.28286 -1.333681,-0.565236 -0.08893,-0.07056 -0.172367,-0.146567 -0.250562,-0.22722 -0.469151,-0.483878 -0.746827,-1.140486 -0.854928,-1.869979 -0.01801,-0.121585 -0.03142,-0.245072 -0.04012,-0.370251 -0.01738,-0.250353 -0.0164,-0.506947 0.0023,-0.766145 0.01869,-0.259197 0.05501,-0.52094 0.108177,-0.7816 0.05317,-0.260661 0.123437,-0.520284 0.209458,-0.775021 0.04301,-0.127375 0.08981,-0.253636 0.140737,-0.378141 0.05091,-0.124512 0.105772,-0.247229 0.164407,-0.367948 0.05863,-0.120725 0.120955,-0.23944 0.187098,-0.35545 0.132274,-0.232033 0.279515,-0.453588 0.440613,-0.661257 0.161099,-0.207663 0.336164,-0.40148 0.524465,-0.577405 0.188301,-0.175918 0.389817,-0.334065 0.603709,-0.470863 0.10695,-0.0684 0.217088,-0.131511 0.330133,-0.18874 0.226084,-0.114469 0.463946,-0.20569 0.713204,-0.269963 0.124632,-0.03213 0.2523,-0.0574 0.382417,-0.07562 0.130117,-0.0182 0.262792,-0.02921 0.398197,-0.03257 z m 15.112792,0 c 0.135405,0.0032 0.26808,0.01431 0.398198,0.03258 h 3.24e-4 c 0.390237,0.05466 0.756263,0.173933 1.095297,0.345588 h 3.24e-4 c 0.225995,0.114439 0.439971,0.252484 0.641195,0.409701 h 3.3e-4 c 2.616731,2.044773 3.070942,7.395193 -0.410039,7.945551 -0.405004,-0.0301 -0.731128,-0.11734 -1.002892,-0.24366 h -3.25e-4 c -0.54363,-0.252736 -0.869926,-0.662287 -1.17717,-1.085747 -0.07681,-0.105871 -0.152343,-0.212597 -0.229844,-0.317967 -0.0775,-0.105364 -0.156975,-0.209349 -0.241349,-0.309744 -0.0708,-0.06274 -0.142615,-0.118842 -0.215051,-0.168359 h -3.24e-4 c -0.217412,-0.148574 -0.440505,-0.239825 -0.65994,-0.288038 h -3.31e-4 c -0.07307,-0.01603 -0.145795,-0.02749 -0.217672,-0.03455 h -3.31e-4 c -0.07198,-0.007 -0.142996,-0.0095 -0.213072,-0.0085 -0.07007,0.0012 -0.139038,0.0057 -0.206499,0.01349 -0.06746,0.0079 -0.133489,0.01934 -0.197621,0.03322 -0.256418,0.05536 -0.483755,0.153717 -0.658623,0.261411 -0.08737,0.05383 -0.161818,0.110118 -0.220307,0.164407 -0.05852,0.05434 -0.101051,0.106842 -0.12495,0.153228 -0.177032,0.237122 -0.352136,0.456265 -0.525452,0.659939 -0.06667,0.07831 -0.131816,0.143564 -0.197946,0.21702 -0.105384,0.117111 -0.210978,0.238046 -0.315007,0.342957 -0.08401,0.08465 -0.166438,0.155324 -0.249571,0.232143 -0.08382,0.0775 -0.168269,0.16052 -0.251217,0.23018 -0.09102,0.0764 -0.180646,0.13882 -0.27062,0.20583 -0.0738,0.0551 -0.148181,0.11525 -0.221292,0.16409 -0.0939,0.0626 -0.186392,0.1125 -0.27917,0.16506 -0.06692,0.038 -0.134228,0.0806 -0.200576,0.11345 -0.143625,0.0709 -0.286151,0.131694 -0.427136,0.178874 -0.0052,0.002 -0.01031,0.004 -0.01546,0.005 -0.150701,0.0496 -0.300079,0.086 -0.447847,0.10917 -0.0015,2.4e-4 -0.0031,4.1e-4 -0.0046,6.3e-4 -0.1499,0.0233 -0.298247,0.0333 -0.44522,0.0302 h -3.31e-4 l -0.0011,-1.299167 -3.31e-4,-0.513607 c 0.08492,0.0018 0.170331,0.0053 0.252535,8.8e-4 0.02354,-8.8e-4 0.04542,-0.0062 0.06872,-0.007 0.0098,-5.99e-4 0.01917,-0.0018 0.02894,-0.0026 0.08123,-0.0062 0.162785,-0.01136 0.240694,-0.02396 0.01259,-0.0018 0.024,-0.0062 0.03649,-0.0088 0.03498,-0.0062 0.06771,-0.01674 0.101936,-0.02431 0.05994,-0.01357 0.121419,-0.02387 0.178877,-0.04246 0.0048,-8.81e-4 0.009,-0.0044 0.0138,-0.0053 0.09695,-0.0318 0.19035,-0.07029 0.279164,-0.118371 0.267737,-0.07241 0.575376,-0.346234 0.925296,-0.705644 0.116641,-0.119802 0.238193,-0.249188 0.364327,-0.383727 0.0033,-0.0038 0.0071,-0.0076 0.01053,-0.0112 1.007773,-1.074923 2.319782,-2.474149 3.983956,-2.024863 h 3.25e-4 c 0.730436,0.197291 1.528644,0.75079 2.398397,1.844338 0.12427,0.156243 0.249952,0.323609 0.377155,0.502435 l 0.820726,-0.462973 c 0.03738,-0.0217 0.07519,-0.05402 0.111798,-0.09734 h 3.31e-4 c 0.07322,-0.08659 0.141081,-0.217277 0.188084,-0.395562 0.0705,-0.267431 0.094,-0.641812 0.01875,-1.135409 -0.05018,-0.32907 -0.144383,-0.711137 -0.29791,-1.149548 -0.209294,-0.503568 -0.500497,-0.960038 -0.830871,-1.39432 -0.330367,-0.434281 -0.699842,-0.846496 -1.065366,-1.260684 -0.243683,-0.276129 -0.485707,-0.553124 -0.713204,-0.838485 z m -7.597008,7.744639 c 0.01377,-3.87e-4 0.02696,5.11e-4 0.04078,0 0.0137,5.02e-4 0.0268,-3.87e-4 0.04044,0 l 0.02104,1.809495 c -0.02018,8.8e-4 -0.0406,6.3e-4 -0.06083,0.002 -0.02078,-8.8e-4 -0.04176,-1.4e-4 -0.06248,-0.002 z m -2.864983,8.817255 c 0.26325,0.0159 0.492172,0.0413 0.694128,0.073 0.03382,0.005 0.05713,0.0128 0.08944,0.0184 0.163682,0.0287 0.318792,0.0597 0.447854,0.0954 7.63e-4,2.1e-4 0.0012,4.6e-4 0.0019,6.4e-4 0.458507,0.12697 0.721827,0.28678 0.956202,0.40214 0.07826,0.0385 0.153107,0.0723 0.231155,0.098 0.137569,0.0453 0.291541,0.0592 0.481718,0.0397 0.0012,-1.3e-4 0.002,1.3e-4 0.0033,0 0.191749,0.02 0.346338,0.006 0.484676,-0.0397 0.07805,-0.0257 0.153235,-0.0595 0.231486,-0.098 0.234763,-0.11554 0.498275,-0.27573 0.958181,-0.4028 0.129003,-0.0357 0.283586,-0.0663 0.447186,-0.095 0.03246,-0.006 0.05579,-0.0134 0.08977,-0.0188 0.201955,-0.0317 0.430877,-0.0571 0.694134,-0.073 1.660059,0.0382 2.848886,0.40796 3.963895,0.92004 h 3.31e-4 c 0.891916,0.40963 1.736465,0.91049 2.737081,1.40569 h 3.24e-4 c 0.250104,0.12377 0.510154,0.24738 0.782918,0.36894 0.272858,0.1216 0.558621,0.24137 0.860514,0.35774 0.301893,0.11638 0.619903,0.22925 0.957188,0.33738 0.337283,0.10812 0.693574,0.21126 1.072606,0.3081 h 3.31e-4 c 0.378937,0.0968 0.780398,0.18743 1.207413,0.26996 0.427129,0.0825 0.880055,0.15706 1.361639,0.22228 0.240789,0.0327 0.488845,0.0631 0.744441,0.0907 0.255596,0.0277 0.518623,0.0529 0.789822,0.0753 -0.964971,1.06376 -1.963937,2.08819 -3.028412,3.03695 -0.08853,0.0789 -0.174537,0.16092 -0.26404,0.23872 -0.277484,0.24116 -0.560358,0.47593 -0.848023,0.70531 -0.01211,0.01 -0.0237,0.02 -0.03584,0.0296 -0.3019,0.23981 -0.60971,0.47295 -0.924304,0.69808 -0.0011,6.4e-4 -0.0022,8.8e-4 -0.0033,0.003 -0.262729,0.18795 -0.533067,0.36726 -0.805602,0.54387 -0.05472,0.0354 -0.106968,0.0738 -0.16211,0.10883 -0.292769,0.18574 -0.593523,0.36223 -0.898655,0.53367 -0.03721,0.021 -0.07242,0.0441 -0.109825,0.0647 -0.301645,0.16682 -0.612211,0.32344 -0.926938,0.47514 -0.04555,0.0219 -0.08865,0.0468 -0.134489,0.0684 -2.531714,1.19441 -5.50177,1.88188 -9.165464,1.76772 l -0.0017,-2.58253 -0.01381,2.57957 c -0.02079,6.4e-4 -0.04076,6.1e-4 -0.06149,8.8e-4 -0.02084,-6.4e-4 -0.04093,-5.5e-4 -0.06182,-8.8e-4 l -0.01381,-2.57957 -0.0017,2.58253 c -3.662593,0.11412 -6.63193,-0.57298 -9.163162,-1.76673 -0.06232,-0.0294 -0.121024,-0.0631 -0.182821,-0.0931 -0.297643,-0.14451 -0.592689,-0.29207 -0.878599,-0.45015 -0.05625,-0.0311 -0.109252,-0.0661 -0.165069,-0.0977 -0.286424,-0.16216 -0.570208,-0.32731 -0.84572,-0.5021 -0.06102,-0.0388 -0.118689,-0.0814 -0.179201,-0.12067 -0.265497,-0.17243 -0.529372,-0.34686 -0.785546,-0.53005 -0.06608,-0.0473 -0.128838,-0.0984 -0.194332,-0.14633 -0.558635,-0.40882 -1.099319,-0.83834 -1.620087,-1.29093 -0.113936,-0.0991 -0.223679,-0.20297 -0.336049,-0.30383 -0.748691,-0.67178 -1.467145,-1.37859 -2.161649,-2.11299 -0.0012,-8.8e-4 -0.0024,-0.003 -0.0036,-0.004 -0.266464,-0.28183 -0.529944,-0.56699 -0.791133,-0.85492 0.271192,-0.0225 0.534551,-0.0476 0.790146,-0.0753 0.255488,-0.0277 0.503423,-0.0581 0.744116,-0.0908 h 3.31e-4 c 0.481578,-0.0652 0.934179,-0.13973 1.361303,-0.22228 0.854138,-0.16508 1.605858,-0.36185 2.28035,-0.57806 1.011851,-0.32438 1.850414,-0.69262 2.60095,-1.06405 0.750441,-0.37141 1.413142,-0.74627 2.073851,-1.08314 0.220268,-0.11229 0.44055,-0.22015 0.663554,-0.32256 0.446009,-0.20484 0.903707,-0.38685 1.398794,-0.53401 0.247539,-0.0735 0.504364,-0.13838 0.773703,-0.19302 0.538693,-0.10924 1.12738,-0.17771 1.791404,-0.19301 z m 2.905427,14.84808 c 0.02067,1.9e-4 0.04379,0.002 0.06511,0.003 l 0.01447,1.50598 -0.0011,-1.50566 c 0.0011,4e-5 0.0022,3e-4 0.0033,3.4e-4 0.425018,0.0142 0.977396,0.11203 1.584575,0.26535 0.102227,0.0259 0.210863,0.0595 0.315993,0.0885 0.214223,0.059 0.428256,0.11786 0.650401,0.1884 0.127947,0.0407 0.257562,0.0882 0.386686,0.13219 0.207663,0.0706 0.415289,0.13971 0.622456,0.21768 0.145083,0.0546 0.284789,0.11503 0.427792,0.17262 0.187351,0.0754 0.377192,0.14889 0.558003,0.22821 0.176637,0.0776 0.338213,0.15887 0.505389,0.23904 0.138376,0.0663 0.28505,0.13087 0.41497,0.19828 0.01715,0.009 0.03266,0.0177 0.04965,0.0267 0.265758,0.13944 0.513355,0.28038 0.730302,0.4199 0.06704,0.0432 0.126038,0.0858 0.187429,0.12858 0.04355,0.0303 0.09167,0.0609 0.132185,0.0911 0.09846,0.0732 0.1879,0.14561 0.266668,0.21668 -0.422193,-0.1238 -0.821962,-0.23522 -1.202158,-0.33506 -0.207587,-0.0545 -0.395525,-0.0975 -0.591537,-0.14534 -0.162441,-0.0396 -0.334395,-0.0847 -0.489284,-0.12002 -0.213421,-0.0486 -0.408683,-0.0865 -0.60864,-0.12725 -0.120885,-0.0246 -0.250392,-0.0541 -0.366631,-0.0759 -0.217558,-0.041 -0.418737,-0.0721 -0.621138,-0.1039 -0.08285,-0.013 -0.172711,-0.0301 -0.253191,-0.0418 -0.01371,-0.002 -0.02943,-0.005 -0.04307,-0.007 -0.211577,-0.03 -0.407679,-0.0507 -0.604035,-0.0714 -0.04655,-0.005 -0.09762,-0.0124 -0.143365,-0.0168 -0.01691,-0.002 -0.03613,-0.004 -0.05294,-0.006 -0.201573,-0.0187 -0.390307,-0.0292 -0.57773,-0.0388 -0.02891,-8.8e-4 -0.06051,-0.004 -0.08911,-0.006 -0.227515,-0.0103 -0.445487,-0.0145 -0.655663,-0.0131 -7.63e-4,0 -0.0015,-10e-6 -0.0023,0 -0.02326,1.4e-4 -0.04894,-8.8e-4 -0.07201,-8.8e-4 -0.18671,0.003 -0.365516,0.0105 -0.541568,0.0204 -0.176046,-0.01 -0.354522,-0.0182 -0.541232,-0.0204 -0.02392,-2.9e-4 -0.05052,8.8e-4 -0.07464,8.8e-4 -0.0073,-5e-5 -0.0154,3.6e-4 -0.02269,3.2e-4 -0.203152,-6.4e-4 -0.412647,0.004 -0.631987,0.0129 -0.0307,8.9e-4 -0.06464,0.004 -0.09569,0.006 -0.185539,0.01 -0.372089,0.02 -0.571487,0.0385 -0.01649,8.9e-4 -0.03535,0.004 -0.05195,0.006 -0.04746,0.004 -0.100307,0.0123 -0.148621,0.0174 -0.19509,0.0205 -0.389995,0.041 -0.600095,0.0707 -0.01571,0.003 -0.03384,0.006 -0.04965,0.008 -0.04599,0.007 -0.09792,0.0169 -0.144682,0.024 -0.232727,0.0354 -0.468992,0.0728 -0.722081,0.12036 -0.125358,0.0235 -0.264472,0.0555 -0.395238,0.0822 -0.1914,0.0392 -0.377333,0.075 -0.58102,0.12133 -0.154882,0.0352 -0.326855,0.0804 -0.489284,0.12002 -0.196012,0.0478 -0.383956,0.0908 -0.591543,0.14533 -0.380171,0.0998 -0.77999,0.21127 -1.202157,0.33507 0.07878,-0.0711 0.168537,-0.14353 0.266998,-0.21669 0.03976,-0.0295 0.08686,-0.0597 0.129558,-0.0894 0.06212,-0.0433 0.1218,-0.0865 0.189725,-0.13022 0.216966,-0.13954 0.464525,-0.28045 0.730308,-0.4199 0.01698,-0.009 0.03249,-0.0178 0.04966,-0.0267 0.124842,-0.0647 0.266171,-0.12693 0.398852,-0.19072 0.173099,-0.0832 0.341127,-0.16744 0.524464,-0.24793 0.18022,-0.079 0.369316,-0.1521 0.556033,-0.22721 0.141908,-0.0572 0.280538,-0.11703 0.424501,-0.17131 0.213314,-0.0803 0.427079,-0.15169 0.64087,-0.22425 0.123181,-0.0418 0.246834,-0.0874 0.368934,-0.12627 0.215839,-0.0685 0.423534,-0.12513 0.631987,-0.18283 0.113707,-0.0315 0.230964,-0.0678 0.341312,-0.0957 0.606598,-0.15291 1.158742,-0.25065 1.582925,-0.26437 l -0.0011,1.50566 0.01414,-1.50599 c 0.02122,-6.1e-4 0.04421,-0.003 0.06478,-0.003 z"
       inkscape:label="Conduit" /></g><metadata
     id="metadata4608"><rdf:RDF><cc:License
         rdf:about="http://creativecommons.org/licenses/by-sa/4.0/"><cc:permits
           rdf:resource="http://creativecommons.org/ns#Reproduction" /><cc:permits
           rdf:resource="http://creativecommons.org/ns#Distribution" /><cc:requires
           rdf:resource="http://creativecommons.org/ns#Notice" /><cc:requires
           rdf:resource="http://creativecommons.org/ns#Attribution" /><cc:permits
           rdf:resource="http://creativecommons.org/ns#DerivativeWorks" /><cc:requires
           rdf:resource="http://creativecommons.org/ns#ShareAlike" /></cc:License><cc:Work
         rdf:about=""><cc:license
           rdf:resource="http://creativecommons.org/licenses/by-sa/4.0/" /><dc:rights><cc:Agent><dc:title>Apex Legends</dc:title></cc:Agent></dc:rights><dc:publisher><cc:Agent><dc:title>Apex Legends</dc:title></cc:Agent></dc:publisher><dc:subject><rdf:Bag><rdf:li>Conduit</rdf:li><rdf:li>Legend</rdf:li></rdf:Bag></dc:subject><dc:title>Conduit</dc:title></cc:Work></rdf:RDF></metadata></svg>
