<?xml version="1.0" encoding="UTF-8" standalone="no"?>
<!-- Created with Inkscape (http://www.inkscape.org/) -->

<svg
   width="512"
   height="512"
   viewBox="0 0 135.46666 135.46667"
   version="1.1"
   id="svg5"
   xml:space="preserve"
   sodipodi:docname="Pathfinder_Mobile_Icon.svg"
   inkscape:version="1.2.2 (b0a8486541, 2022-12-01)"
   xmlns:inkscape="http://www.inkscape.org/namespaces/inkscape"
   xmlns:sodipodi="http://sodipodi.sourceforge.net/DTD/sodipodi-0.dtd"
   xmlns="http://www.w3.org/2000/svg"
   xmlns:svg="http://www.w3.org/2000/svg"><sodipodi:namedview
     id="namedview7"
     pagecolor="#ffffff"
     bordercolor="#000000"
     borderopacity="0.25"
     inkscape:showpageshadow="2"
     inkscape:pageopacity="0.0"
     inkscape:pagecheckerboard="0"
     inkscape:deskcolor="#d1d1d1"
     inkscape:document-units="mm"
     showgrid="false"
     inkscape:zoom="1.3026915"
     inkscape:cx="150.0739"
     inkscape:cy="257.92753"
     inkscape:window-width="1920"
     inkscape:window-height="1017"
     inkscape:window-x="-8"
     inkscape:window-y="-8"
     inkscape:window-maximized="1"
     inkscape:current-layer="layer1" /><defs
     id="defs2" /><g
     inkscape:label="Layer 1"
     inkscape:groupmode="layer"
     id="layer1"><g
       id="g9807"
       transform="matrix(2.0417387,0,0,2.0417387,-71.254766,-69.246506)"><g
         id="g9783"><path
           style="fill:#000000;fill-opacity:1;stroke:none;stroke-width:0.264583;stroke-linecap:square;stroke-dasharray:none;stroke-opacity:1"
           d="m 91.292843,82.795269 -2.944148,6.31915 c -0.337807,0.76479 2.098472,1.312223 2.333775,0.753988 l 2.154256,-4.775266 c 0.623099,-1.83473 -0.679017,-1.860926 -1.543883,-2.297872 z"
           id="path9740-8"
           sodipodi:nodetypes="ccccc" /><path
           style="fill:#000000;fill-opacity:1;stroke:none;stroke-width:0.264583;stroke-linecap:square;stroke-dasharray:none;stroke-opacity:1"
           d="m 80.235819,84.720112 c 1.341431,0.731788 1.32139,2.34398 0.417931,2.804667 -0.718073,0.576404 -2.471468,0.43905 -2.49976,-1.255989 z"
           id="path9714-5"
           sodipodi:nodetypes="cccc" /><path
           style="fill:#000000;fill-opacity:1;stroke:none;stroke-width:0.264583;stroke-linecap:square;stroke-dasharray:none;stroke-opacity:1"
           d="m 85.357622,80.856402 -3.051955,2.728725 c 0.98699,1.308015 1.875199,2.65217 0.143616,4.954785 1.165783,0.18043 2.305674,0.313391 2.908339,-0.538562 z"
           id="path9690-5"
           sodipodi:nodetypes="ccccc" /><path
           style="fill:#000000;fill-opacity:1;stroke:none;stroke-width:0.264583;stroke-linecap:square;stroke-dasharray:none;stroke-opacity:1"
           d="m 89.871594,74.824431 -2.088935,3.087767 V 85.5239 l 2.088935,-3.617309 z"
           id="path9666-7"
           sodipodi:nodetypes="ccccc" /><path
           style="fill:#000000;fill-opacity:1;stroke:none;stroke-width:0.264583;stroke-linecap:square;stroke-dasharray:none;stroke-opacity:1"
           d="M 43.585636,51.989302 V 78.414834 C 37.063908,76.658081 38.621434,71.718592 37.984574,67.643557 36.388589,57.598558 35.752504,54.582298 43.585636,51.989302 Z"
           id="path8914-2"
           sodipodi:nodetypes="cccc" /><path
           style="fill:#000000;fill-opacity:1;stroke:none;stroke-width:0.264583;stroke-linecap:square;stroke-dasharray:none;stroke-opacity:1"
           d="m 46.891046,67.883004 h 5.529257 c 3.250426,17.124602 28.65093,16.271179 31.66755,0 h 5.0266 c -4.545464,25.057324 -39.316713,22.265561 -42.223407,0 z"
           id="path8890-8"
           sodipodi:nodetypes="ccccc" /><path
           style="fill:#000000;fill-opacity:1;stroke:none;stroke-width:0.264583;stroke-linecap:square;stroke-dasharray:none;stroke-opacity:1"
           d="m 87.777536,50.337656 v -5.098404 c 0.972419,0.857935 1.780069,2.086598 2.36968,3.805851 v 4.739362 z"
           id="path8842-0"
           sodipodi:nodetypes="ccccc" /><path
           style="color:#000000;fill:#000000;stroke-linecap:square;-inkscape-stroke:none;fill-opacity:1"
           d="m 67.921875,52.833984 c -6.305778,0 -11.431641,5.125863 -11.431641,11.431641 0,6.305778 5.125863,11.431641 11.431641,11.431641 6.305778,0 11.431641,-5.125863 11.431641,-11.431641 0,-6.305778 -5.125863,-11.431641 -11.431641,-11.431641 z m 0,1.294922 c 5.606352,0 10.136719,4.530367 10.136719,10.136719 0,5.606352 -4.530367,10.136719 -10.136719,10.136719 -5.606352,0 -10.136719,-4.530367 -10.136719,-10.136719 0,-5.606352 4.530367,-10.136719 10.136719,-10.136719 z"
           id="path8576" /><path
           id="rect8786"
           style="fill:#000000;fill-opacity:1;stroke-width:0.260449;stroke-linecap:square"
           d="m 58.118217,95.510185 h 21.092785 v 3.198906 H 58.118217 Z" /><path
           style="fill:#000000;fill-opacity:1;stroke:none;stroke-width:0.264583;stroke-linecap:square;stroke-dasharray:none;stroke-opacity:1"
           d="M 48.829785,50.337764 V 45.23936 c -0.972419,0.857935 -1.780069,2.086598 -2.36968,3.805851 v 4.739362 z"
           id="path8842"
           sodipodi:nodetypes="ccccc" /><path
           style="fill:#000000;fill-opacity:1;stroke:none;stroke-width:0.264583;stroke-linecap:square;stroke-dasharray:none;stroke-opacity:1"
           d="m 50.984041,47.896 v -5.241746 c 12.46173,-10.538142 23.797715,-8.567995 34.539893,0 V 47.896 c -11.790212,-9.507399 -23.323998,-10.210825 -34.539893,0 z"
           id="path8866"
           sodipodi:nodetypes="ccccc" /><path
           style="fill:#000000;fill-opacity:1;stroke:none;stroke-width:0.264583;stroke-linecap:square;stroke-dasharray:none;stroke-opacity:1"
           d="m 46.890955,61.755318 h 5.529257 c 3.250426,-18.032197 28.650929,-17.085949 31.667551,0 h 5.026596 c -4.341995,-26.074644 -39.137516,-23.161532 -42.223404,0 z"
           id="path8890"
           sodipodi:nodetypes="ccccc" /><path
           style="fill:#000000;fill-opacity:1;stroke:none;stroke-width:0.264583;stroke-linecap:square;stroke-dasharray:none;stroke-opacity:1"
           d="M 92.561168,51.98936 V 78.414892 C 99.082896,76.658139 97.52537,71.71865 98.16223,67.643615 99.758215,57.598616 100.3943,54.582356 92.561168,51.98936 Z"
           id="path8914"
           sodipodi:nodetypes="cccc" /><path
           style="fill:#000000;fill-opacity:1;stroke:none;stroke-width:0.264583;stroke-linecap:square;stroke-dasharray:none;stroke-opacity:1"
           d="m 52.851063,90.406912 c 7.113735,3.090272 25.200124,2.749851 30.590423,0 z"
           id="path9664"
           sodipodi:nodetypes="ccc" /><path
           style="fill:#000000;fill-opacity:1;stroke:none;stroke-width:0.264583;stroke-linecap:square;stroke-dasharray:none;stroke-opacity:1"
           d="m 46.31,74.824465 2.088935,3.087767 v 7.611702 L 46.31,81.906625 Z"
           id="path9666"
           sodipodi:nodetypes="ccccc" /><path
           style="fill:#000000;fill-opacity:1;stroke:none;stroke-width:0.264583;stroke-linecap:square;stroke-dasharray:none;stroke-opacity:1"
           d="m 50.589,80.85638 3.051955,2.728725 c -0.98699,1.308015 -1.875199,2.65217 -0.143616,4.954785 -1.165783,0.18043 -2.305674,0.313391 -2.908339,-0.538562 z"
           id="path9690"
           sodipodi:nodetypes="ccccc" /><path
           style="fill:#000000;fill-opacity:1;stroke:none;stroke-width:0.264583;stroke-linecap:square;stroke-dasharray:none;stroke-opacity:1"
           d="m 55.853911,84.720228 c -1.341431,0.731788 -1.32139,2.34398 -0.417931,2.804667 0.718073,0.576404 2.471468,0.43905 2.49976,-1.255989 z"
           id="path9714"
           sodipodi:nodetypes="cccc" /><path
           style="fill:#000000;fill-opacity:1;stroke:none;stroke-width:0.264583;stroke-linecap:square;stroke-dasharray:none;stroke-opacity:1"
           d="M 59.529254,88.53989 H 76.583775 L 75.501883,86.666 c -4.738053,1.300516 -9.787059,1.473826 -15.290448,0 z"
           id="path9738"
           sodipodi:nodetypes="ccccc" /><path
           style="fill:#000000;fill-opacity:1;stroke:none;stroke-width:0.264583;stroke-linecap:square;stroke-dasharray:none;stroke-opacity:1"
           d="m 45.23936,82.795209 2.944148,6.31915 c 0.337807,0.76479 -2.098472,1.312223 -2.333775,0.753988 l -2.154256,-4.775266 c -0.623099,-1.83473 0.679017,-1.860926 1.543883,-2.297872 z"
           id="path9740"
           sodipodi:nodetypes="ccccc" /></g></g></g><style
     type="text/css"
     id="style2">
	.st0{fill:#241C1C;}
</style><style
     type="text/css"
     id="style2-6">
	.st0{fill:#241C1C;}
</style><style
     type="text/css"
     id="style2-4">
	.st0{fill:#241C1C;}
</style><style
     type="text/css"
     id="style2-5">
	.st0{fill:#241C1C;}
</style></svg>
