<?xml version="1.0" encoding="UTF-8" standalone="no"?>
<!-- Created with Inkscape (http://www.inkscape.org/) -->

<svg
   width="512"
   height="512"
   viewBox="0 0 135.46666 135.46667"
   version="1.1"
   id="svg5"
   xml:space="preserve"
   sodipodi:docname="Wraith_Mobile_Icon.svg"
   inkscape:version="1.2.2 (b0a8486541, 2022-12-01)"
   xmlns:inkscape="http://www.inkscape.org/namespaces/inkscape"
   xmlns:sodipodi="http://sodipodi.sourceforge.net/DTD/sodipodi-0.dtd"
   xmlns="http://www.w3.org/2000/svg"
   xmlns:svg="http://www.w3.org/2000/svg"><sodipodi:namedview
     id="namedview7"
     pagecolor="#ffffff"
     bordercolor="#000000"
     borderopacity="0.25"
     inkscape:showpageshadow="2"
     inkscape:pageopacity="0.0"
     inkscape:pagecheckerboard="0"
     inkscape:deskcolor="#d1d1d1"
     inkscape:document-units="mm"
     showgrid="false"
     inkscape:zoom="0.921142"
     inkscape:cx="90.648347"
     inkscape:cy="388.648"
     inkscape:window-width="1920"
     inkscape:window-height="1017"
     inkscape:window-x="-8"
     inkscape:window-y="-8"
     inkscape:window-maximized="1"
     inkscape:current-layer="layer1" /><defs
     id="defs2" /><g
     inkscape:label="Layer 1"
     inkscape:groupmode="layer"
     id="layer1"><path
       d="m 101.72709,43.60259 c -0.90224,-1.803907 -2.104578,-2.405249 -3.006476,-3.00659 -0.902238,-0.601112 -1.202679,-0.902236 -1.202679,-1.202567 -0.300006,-2.405245 -3.908372,-6.313618 -7.21563,-6.313618 -1.803909,0 -2.705804,0.601114 -3.607813,1.202569 -0.300007,0.301131 -0.601114,0.301131 -0.90224,0.301131 -0.902236,0 -2.405249,-1.202684 -2.705917,-1.803911 h 0.601114 c 0.601113,0 1.503235,-0.301131 2.104578,-1.202676 0.902234,-0.90224 0.902234,-0.90224 3.607814,-0.90224 h 1.202568 c 0.902237,0 2.104574,0 2.405243,-0.902238 0.601114,-0.902241 0,-1.503237 -0.601108,-2.405132 -0.301133,-0.301131 -0.601116,-0.90224 -0.601116,-1.202683 0,-0.601117 -0.301131,-0.90224 -0.902236,-0.90224 v 0 c -0.601115,0 -0.902241,0.30113 -0.902241,0.90224 0,0.902236 0.301131,1.503351 0.902241,2.104578 0,0.301131 0.30113,0.301131 0.30113,0.601114 h -0.90224 -1.202565 c -2.705803,0 -3.307144,0 -4.810381,1.202567 -0.301133,0.301131 -0.902238,0.601115 -1.202681,0.601115 -0.601112,0.301129 -1.803907,0.301129 -1.803907,1.803904 0,1.803908 2.405246,3.607814 4.209152,3.607814 0.902241,0 1.503239,-0.301131 2.104582,-0.902236 0.902234,0 1.503235,-0.601116 2.7058,-0.601116 2.104579,0 5.411726,3.307145 5.411726,4.810385 0.30113,1.202567 1.202678,2.104576 2.104575,2.405248 0.902238,0.601112 1.803909,1.202568 2.405247,2.405134 1.50324,3.006587 6.01307,23.150238 5.41173,25.55537 -1.50325,0.601114 -3.00648,2.40525 -4.20916,3.607816 l -1.50324,1.503241 c -1.202566,1.202677 -1.503238,4.810492 -2.104577,12.62735 -0.301133,2.405248 -0.301133,4.810493 -0.601116,7.215629 -0.301127,1.803906 -0.301127,3.307259 -0.601109,4.509825 v -4.810382 -3.006588 c 0,-5.11105 -0.902239,-6.61429 -2.40525,-6.91496 v -0.601114 c 0,-0.902234 -0.30113,-2.104464 -0.902236,-3.307142 -1.20268,-1.50324 -3.00659,-1.50324 -4.209155,-1.202569 0,-0.601111 -0.301133,-1.503236 -0.301133,-3.006472 0,-3.307258 -1.202564,-4.209159 -1.803906,-4.509827 l -1.503237,-0.601112 0.301132,1.503348 v 1.202567 c -1.803907,-2.405244 -6.013063,-5.111051 -9.620874,-7.5163 -1.803909,-1.202566 -3.607816,-2.405243 -4.209041,-3.006474 -0.601116,-0.601112 -0.601116,-0.902236 -0.90224,-0.902236 -0.601112,-0.601114 -0.902238,-0.902238 -1.803907,-0.301131 -0.301132,0 -0.601112,0.301131 -1.202569,0.601114 -1.803906,0.601112 -5.71239,3.607816 -8.117637,6.01306 C 59.33499,71.26129 53.622486,78.77759 51.217239,81.78418 48.81199,84.790652 46.707527,92.006281 45.805518,93.208847 45.204403,94.712089 44.90328,103.73162 44.90328,110.04536 v 3.00647 3.30714 c 0,0.60112 0.301128,0.90224 0.601112,1.20269 -0.301131,0 -0.601112,-0.30114 -0.902237,-0.90224 0,1.20268 -0.301131,0.60112 -0.90224,0 -0.902237,-0.60111 -0.30113,-7.21563 -0.30113,-9.01953 0,-1.80392 -1.202567,-3.30716 -1.503237,-7.816864 -0.30113,-4.509825 2.104576,-7.516301 3.006588,-10.522889 0.902237,-3.006476 6.313619,-12.927909 8.117528,-14.431261 1.202567,-0.902236 1.503235,-1.803905 1.803904,-2.104462 v -0.601112 c -0.601112,-0.601116 -0.902238,-1.503238 -0.902238,-1.803906 0.300008,-0.601116 0.902238,-1.503241 0.300008,-2.405249 -0.601115,-0.902239 -1.803907,-0.301134 -2.104463,-0.301134 -6.313734,1.202681 -10.522887,7.816971 -11.424784,10.222221 -0.301132,1.202564 -0.601111,5.11105 -0.902237,11.124115 0,1.202566 0,2.705801 -0.301131,4.209041 -0.301133,-0.30113 -0.301133,-0.30113 -0.601114,-0.30113 -0.902239,0 -1.202568,0.902233 -1.202568,1.503347 -0.902237,3.607818 0.300008,6.614303 1.202568,8.718873 0,0.30113 0.30113,0.60111 0.30113,1.20256 0.301132,2.10457 0,6.01306 0,7.81697 v 0.90224 c 0,0.60111 0.301132,3.00659 0.601115,6.01305 0.301131,1.80393 0.601112,3.90849 0.601112,4.20917 0,0.60111 0.301131,0.90224 0.601111,1.50324 0.301131,0.30112 0.902236,1.20256 0.902236,1.50324 h -0.601111 c -1.803906,0 -3.006586,-7.81699 -3.006586,-14.43127 0,-3.00647 -0.902236,-6.61429 -0.902236,-6.61429 l -0.301132,-0.30113 c -0.902238,-0.90223 -1.202567,-2.70591 -1.503241,-3.90848 -0.301129,-0.90225 -0.301129,-1.503237 -0.601109,-2.104577 -0.601115,-1.202569 -1.20257,-13.829918 -1.20257,-15.333159 0,-1.803906 -1.503236,-1.803906 -2.405245,-1.803906 h -0.601112 c -0.601114,0 -0.601114,0 -0.902241,-0.902238 0,-0.601114 0,-0.90224 0.301132,-1.202567 0.902238,-0.601115 1.80391,-2.10458 1.80391,-3.607814 0,0 -0.601114,-13.529362 0.902234,-19.241754 1.202683,-4.209041 3.908484,-8.418197 5.712392,-10.823446 0.601115,-0.601112 0.902241,-1.202567 1.202567,-1.803907 0.902241,-1.803907 6.573859,-4.509713 7.47587,-5.111054 0.601112,-0.301131 1.803906,-0.601112 2.705803,-0.902237 h 0.601112 c 1.803907,-0.601112 1.803907,-1.803905 1.803907,-3.006586 v -0.301133 h 1.202569 v -0.301127 c 1.803906,0 2.405246,-2.104581 2.405246,-2.705918 v -2.105434 h -0.902236 c -2.705804,0 -3.607813,-3.307258 -3.607813,-3.307258 -0.644132,-2.951724 -1.053092,-5.832897 -0.274229,-8.357726 -0.606403,-2.14148 9.226824,-10.4088026 17.678769,-10.5212367 -0.871161,-5.4282381 6.747868,-2.2187733 3.97393,1.6081244 4.470087,2.0881283 5.671978,4.2220933 4.971057,6.4107133 -1.316861,2.483665 -4.331862,8.999107 5.192841,6.119329 3.383844,0.817312 3.434905,5.029094 6.068622,5.494957 2.803398,0.495874 2.725442,-0.451285 1.408447,-1.760733 -2.165466,-2.153054 -4.066814,-5.468217 -6.69239,-5.59679 -3.173999,0.339463 -8.046196,2.11586 -3.677474,-3.926984 C 81.519045,12.819678 75.697399,7.5878953 75.357346,7.6675574 74.195562,6.9561743 75.504691,5.9429408 75.343526,4.9750644 75.211299,3.7011605 71.575371,3.4130371 70.217989,3.4245401 67.306761,2.5319687 66.900797,4.1705842 66.923272,6.1719422 63.573073,7.1360796 54.628757,9.1796627 50.686449,14.445377 c -2.209439,2.951134 -2.627163,6.498027 -0.716172,13.21865 v 0 c 0,0 1.803908,3.607812 4.209157,3.908483 v 0.301526 c 0,0.601115 -0.301132,1.202683 -0.601115,1.202683 h -0.301132 c -0.902238,0 -1.803906,0 -2.405132,0.601109 -0.301133,0.301131 -0.601114,0.90224 -0.601114,1.503241 0,1.202681 0,1.202681 -0.301129,1.503348 l -0.601116,0.301132 c -0.902239,0.301132 -2.104463,0.601112 -3.006475,0.902237 -1.202566,0.30113 -7.175083,3.607816 -8.377762,5.411722 0,0.601112 -0.601113,0.902238 -0.902239,1.803909 -1.803907,2.705801 -4.509824,6.914961 -5.71239,11.424785 -1.503238,6.012948 -0.902237,19.842978 -0.902237,19.842978 0,0.601115 -0.601116,1.803907 -0.90224,2.104465 -0.902237,0.601115 -1.503234,1.803909 -1.202567,3.006589 0.301132,0.902238 0.601115,1.803907 2.405133,2.104579 h 0.90224 0.601112 c 0,0.601114 0.601114,14.431257 1.202566,15.934491 0.30113,0.301133 0.30113,1.202576 0.601115,1.803916 0.300007,1.50324 0.902238,3.30714 1.803906,4.5097 0.300007,0.90224 0.902238,3.90849 0.902238,6.01307 0,1.8039 0,16.23516 4.810382,16.23516 0.30113,0 1.803908,0 2.104576,-0.90223 0.601116,-0.90224 -0.301131,-2.40514 -0.902236,-3.30715 -0.301132,-0.30114 -0.301132,-0.60111 -0.601115,-0.60111 0,-0.30113 -0.301132,-1.80391 -0.601112,-4.20915 -0.301131,-2.40526 -0.601112,-5.11105 -0.601112,-6.01308 v -0.90222 -3.00659 c 0.299976,0.60111 0.601112,1.20268 0.902233,2.10458 0,4.20915 0.601115,7.51629 3.607817,7.81697 h 1.202683 c 2.405132,3.30714 5.712276,6.01305 7.816857,8.11753 2.705915,2.7059 12.928017,5.11116 12.928017,5.11116 0,0 10.222105,-2.40526 12.92802,-5.11116 2.705805,-2.70581 7.215631,-6.91497 9.921435,-11.12401 1.503347,-2.40524 3.607814,-6.01306 4.810495,-9.62088 v 0 c 0.601112,-0.30113 2.705804,-1.80391 3.607812,-11.424781 v -0.301131 0 c 3.307132,-8.117526 5.712372,-15.934496 4.509692,-17.137065 -1.20256,-0.902236 -1.50323,-2.405245 -1.50323,-2.405245 v 0 l 0.60111,-0.601115 c 1.20257,-1.202681 2.7058,-2.705918 3.90849,-3.307258 0.30001,0 0.60111,-0.30001 0.60111,-0.902238 1.8039,-3.006475 -3.90849,-24.653361 -5.11105,-26.757942 z m -58.9276,36.378817 c 1.202566,-1.803907 5.411722,-1.50335 5.411722,-1.50335 0,0 0.300007,0.301131 0.902236,0.601113 -1.503234,2.405246 -3.006472,5.71239 -4.20904,8.718865 -0.601112,-0.301128 -0.902238,-0.601112 -1.202681,-0.902238 -0.30113,-0.30113 -0.30113,-0.601114 -0.30113,-0.601114 v 0 0 l 0.30113,-0.301127 c 0.902236,-1.20257 2.104578,-3.607816 2.705918,-5.111054 0.601114,-1.503234 0,-0.301131 -2.104575,-0.301131 -2.104581,-0.301129 -1.50324,-0.601112 -1.50324,-0.601112 z m 20.744879,27.058613 c 1.202677,0 2.104575,0.90223 2.705917,0.90223 h 1.202567 1.202565 c 0.601111,0 1.503352,-0.90223 2.705919,-0.90223 0,0 0.301131,0.90223 0,1.20257 -0.301132,0.30113 -0.301132,1.50323 -3.908484,1.50323 -3.607817,0 -3.607817,-1.20256 -3.908484,-1.50323 z M 48.812438,90.504182 c 0,0 0,-0.301131 0,0 0.601115,-2.104581 1.503351,-4.209156 3.006589,-6.313734 0.601112,-0.902237 1.202567,-1.503238 1.503234,-2.405132 2.40525,1.202565 5.712394,2.405132 9.921435,2.405132 0,0 -4.209041,8.117644 -6.914959,9.320209 0,0 -0.902236,-2.705806 -2.705804,-2.705806 -2.104577,-0.301133 -4.810495,-0.301133 -4.810495,-0.301133 z m 11.124115,16.836398 c -2.104578,0 -1.503237,-1.80392 -0.601116,-1.80392 h 2.40525 c 0,0 0.301131,1.80392 -1.803909,1.80392 z m 7.5163,15.93461 c -1.503239,0 -3.908484,0.30112 -3.908484,-0.60112 0,-0.90224 0,-2.40525 0.902236,-2.40525 h 3.006474 3.908482 c 0,0 0.301132,0 0.301132,1.20267 0,0.90225 -2.705915,1.80392 -4.209156,1.80392 z m 12.326677,-6.61441 c -1.503234,0 -1.503234,-0.90224 -2.104578,-0.90224 -0.601108,0 -1.202566,0.90224 -3.30714,0.90224 -2.104578,0 -5.411724,0 -6.914959,0.30113 -1.503239,-0.30113 -4.509714,-0.30113 -6.91496,-0.30113 -2.405246,0 -2.405246,-0.90224 -3.006472,-0.90224 -0.601115,0 -0.601115,0.90224 -2.104578,0.90224 -1.202683,0 -1.503238,-0.90224 -1.503238,-1.20256 0,-0.30114 0.902235,-1.80391 3.006474,-1.80391 2.104576,0 1.503237,1.20257 3.006474,1.20257 1.803907,0 2.705918,-1.50325 4.509824,-1.50325 1.803909,0 1.503237,0.90226 2.104578,0.90226 h 0.902241 0.902233 c 0.902237,0 0.301131,-0.90226 2.104467,-0.90226 1.803906,0 3.006586,1.50325 4.509823,1.50325 1.503234,0 1.202567,-1.20257 3.006475,-1.20257 1.803904,0 3.006587,1.20257 3.006587,1.80391 0.299978,0.6011 0,1.20256 -1.202683,1.20256 z m -6.614287,-11.12412 h 2.405246 c 0.902239,0 1.503238,1.80392 -0.601112,1.80392 -1.803907,0 -1.803907,-1.80392 -1.803907,-1.80392 z M 91.504984,86.896366 c -1.202679,1.202567 -5.111048,3.607816 -5.111048,3.607816 h -4.509825 c -1.80391,0 -2.705807,2.705803 -2.705807,2.705803 -3.006586,-1.202568 -6.91507,-9.320209 -6.91507,-9.320209 9.620877,0 15.032595,-5.712276 15.032595,-5.712276 v 2.705807 c 0,0.902234 -3.006475,2.405244 -3.006475,2.405244 0.601116,0.301131 3.607816,2.10458 5.111055,2.10458 1.202567,0 3.307142,0.301129 2.104575,1.503235 z m 10.823446,-3.908485 c -0.90224,2.705806 -1.80391,4.810383 -2.10458,7.516301 0,0 -1.803905,0 -0.601111,-5.411723 1.202571,-5.712392 0.301131,-4.209152 1.202571,-6.313733 0,0 -0.30113,3.607815 0.30113,3.307147 0.60111,-0.301131 2.10457,-1.503241 1.20268,0.902237 z"
       style="fill:#000000;fill-opacity:1;stroke-width:1.32431"
       id="path3327" /></g><style
     type="text/css"
     id="style2">
	.st0{fill:#241C1C;}
</style><style
     type="text/css"
     id="style2-6">
	.st0{fill:#241C1C;}
</style><style
     type="text/css"
     id="style2-4">
	.st0{fill:#241C1C;}
</style><style
     type="text/css"
     id="style2-5">
	.st0{fill:#241C1C;}
</style></svg>
